<?xml version="1.0" standalone="no"?>
<!DOCTYPE svg PUBLIC "-//W3C//DTD SVG 20010904//EN"
 "http://www.w3.org/TR/2001/REC-SVG-20010904/DTD/svg10.dtd">
<svg version="1.0" xmlns="http://www.w3.org/2000/svg"
 width="1080.000000pt" height="1440.000000pt" viewBox="0 0 1080.000000 1440.000000"
 preserveAspectRatio="xMidYMid meet">
<metadata>
Created by potrace 1.13, written by Peter Selinger 2001-2015
</metadata>
<g transform="translate(0.000000,1440.000000) scale(0.100000,-0.100000)"
fill="#000000" stroke="none">
<path d="M4704 13026 c-157 -78 -212 -120 -448 -346 -98 -94 -180 -195 -235
-291 -8 -13 -39 -55 -69 -92 -33 -42 -51 -72 -45 -78 5 -5 21 7 39 31 16 22
32 40 37 40 14 0 7 -24 -15 -48 l-23 -25 28 7 28 7 -37 -68 c-21 -37 -61 -109
-91 -160 -57 -99 -59 -103 -40 -103 12 0 87 120 150 240 19 36 43 70 53 75 35
18 84 56 84 65 0 5 -16 0 -35 -12 -58 -33 -51 -13 9 31 31 23 56 46 56 51 0
13 -6 13 -22 -3 -28 -28 -108 -80 -114 -75 -3 4 0 16 6 28 9 16 9 25 1 29 -7
4 3 28 27 67 61 98 140 190 226 261 45 37 88 75 96 84 21 24 82 59 103 59 24
0 53 29 61 62 7 30 99 108 127 108 16 0 13 -5 -13 -30 -29 -26 -24 -25 47 15
44 25 84 45 89 45 5 0 7 3 4 6 -4 3 -20 -2 -38 -11 -45 -23 -49 -12 -5 15 52
32 101 36 160 11 l50 -20 -52 0 c-28 -1 -54 -5 -58 -11 -3 -5 15 -7 47 -4 72
8 81 11 74 30 -6 15 1 16 71 8 43 -4 100 -7 126 -6 60 2 152 -41 217 -102 69
-66 200 -131 188 -94 -3 7 -15 15 -29 16 -13 2 -36 15 -52 28 -16 13 -33 24
-38 24 -6 0 -31 20 -57 43 -26 24 -74 58 -107 76 -59 32 -62 33 -223 37 -90 3
-175 9 -189 15 -44 17 -78 10 -169 -35z"/>
<path d="M5204 12959 c19 -11 19 -12 1 -25 -17 -13 -16 -14 13 -20 17 -4 37
-13 44 -21 10 -12 7 -13 -15 -8 -16 4 -27 3 -27 -3 0 -5 10 -12 22 -15 12 -4
19 -9 16 -13 -10 -10 -60 5 -53 16 3 5 -11 12 -32 15 -90 14 -150 45 -88 45
14 0 25 5 25 10 0 12 -40 13 -58 2 -17 -11 -6 -37 21 -50 19 -9 16 -11 -24
-11 -32 -1 -53 5 -69 19 -13 11 -32 20 -44 20 -21 -1 -21 -1 -1 -12 19 -11 19
-11 0 -20 -18 -7 -18 -8 2 -4 13 2 25 0 28 -4 3 -5 33 -12 67 -16 48 -5 57 -9
40 -15 -33 -12 -26 -22 11 -15 17 3 46 2 62 -3 26 -8 27 -10 8 -11 -41 -4 -43
-5 -43 -15 1 -5 11 -9 23 -7 88 12 107 13 107 4 0 -6 8 -13 18 -16 9 -3 -4 -4
-31 -2 -26 2 -50 0 -53 -5 -3 -5 -16 -9 -30 -9 -14 0 -23 -4 -20 -9 7 -11 -74
-9 -91 2 -21 13 -35 -1 -23 -24 8 -14 21 -19 55 -19 35 0 47 -5 55 -21 8 -15
19 -20 40 -17 32 3 35 -1 27 -32 -3 -13 -14 -20 -30 -20 -28 0 -44 -15 -27
-25 6 -4 30 3 53 14 24 12 53 21 65 21 15 0 26 9 32 25 5 14 20 30 32 35 22 8
22 9 -4 9 -15 1 -30 -3 -33 -9 -3 -5 -19 -10 -36 -10 -16 0 -29 5 -29 10 0 6
14 10 31 10 17 0 37 7 45 15 9 8 30 15 48 15 17 0 37 5 43 11 6 6 37 13 70 16
47 4 63 2 76 -11 13 -13 21 -15 34 -7 16 9 16 10 1 11 -9 0 -18 6 -21 13 -5
17 -178 12 -192 -5 -5 -7 -23 -14 -40 -15 -16 -1 -31 -7 -33 -13 -2 -5 -11
-10 -20 -10 -23 0 37 49 60 50 24 0 33 20 9 20 -11 0 -23 5 -26 10 -4 6 -15 8
-25 5 -10 -3 -21 -2 -24 3 -10 17 34 21 64 5 16 -8 38 -12 49 -8 10 3 30 1 45
-4 17 -7 26 -7 26 -1 0 6 -9 10 -19 10 -11 0 -23 5 -26 10 -3 6 1 10 9 10 21
0 20 4 -8 34 -13 15 -34 26 -49 26 -14 0 -29 5 -32 10 -3 6 -17 10 -30 10 -13
0 -27 5 -30 10 -3 6 2 10 11 10 30 0 2 19 -36 25 -30 6 -32 5 -16 -6z"/>
<path d="M5660 12838 c-41 -11 -77 -21 -79 -23 -11 -12 34 -16 57 -5 65 29
310 21 423 -15 26 -8 56 -15 68 -15 12 0 41 -18 64 -41 37 -36 39 -40 17 -35
-14 3 -97 11 -185 17 -141 11 -166 11 -206 -3 -28 -10 -64 -14 -91 -11 -37 4
-214 -18 -236 -30 -80 -44 -152 -90 -148 -94 3 -3 45 15 94 41 95 49 169 65
289 66 35 0 83 5 107 12 36 9 79 9 203 -1 87 -7 162 -16 168 -19 5 -4 -33 -13
-85 -20 -52 -7 -125 -16 -161 -21 -87 -12 -167 -46 -307 -130 -139 -83 -159
-91 -220 -91 -26 0 -60 -7 -76 -15 -39 -21 -73 -19 -86 4 -17 33 -12 41 18 25
31 -16 72 -19 72 -4 0 6 -12 10 -27 10 -37 0 -50 9 -66 49 l-14 33 -7 -41 c-7
-46 1 -92 18 -103 19 -13 82 -9 112 7 16 8 52 15 81 15 39 0 67 8 118 35 73
37 73 39 -2 -56 -74 -95 -96 -120 -100 -115 -2 2 5 19 16 37 26 42 27 57 3 36
-10 -10 -22 -14 -25 -10 -21 21 -117 -119 -117 -170 0 -14 -7 -30 -15 -37 -12
-10 -15 -9 -15 4 0 34 -19 4 -40 -62 -11 -37 -26 -75 -31 -85 -20 -36 1 -30
36 9 19 22 34 50 34 64 0 24 -1 23 -13 -6 -8 -18 -20 -35 -26 -39 -7 -4 -11
-4 -8 1 2 5 12 29 22 53 15 34 21 40 28 27 10 -18 28 -22 28 -5 0 5 -6 7 -12
3 -7 -5 -3 5 10 20 12 16 22 37 22 47 0 11 5 19 10 19 6 0 15 12 21 26 5 15
13 24 16 20 4 -3 12 6 19 21 11 25 12 26 13 6 1 -32 -18 -70 -44 -87 -21 -14
-61 -104 -50 -114 2 -2 16 21 32 52 15 31 31 56 35 56 12 0 10 -6 -17 -60 -30
-60 -31 -69 -4 -44 17 16 22 16 29 4 6 -8 10 -20 10 -26 0 -16 61 -69 120
-102 28 -16 47 -31 41 -33 -6 -2 -13 -26 -16 -54 -11 -95 -36 -162 -55 -150
-4 3 -10 -4 -13 -15 -3 -11 -11 -20 -17 -20 -8 0 -10 7 -5 23 5 12 10 45 12
72 2 28 5 66 7 86 2 20 1 51 -3 69 -8 41 -31 53 -31 16 0 -20 -4 -24 -17 -19
-15 5 -16 3 -5 -8 6 -7 12 -29 12 -49 -1 -41 -41 -162 -56 -167 -10 -3 -34 92
-34 134 0 14 -15 28 -51 47 -28 14 -53 26 -56 26 -3 0 11 -18 31 -40 32 -36
36 -46 36 -97 0 -64 -35 -172 -59 -181 -9 -3 -19 -10 -22 -15 -19 -28 -59 53
-59 117 1 22 7 52 15 66 17 31 19 44 3 34 -8 -5 -9 5 -4 37 4 24 4 40 -1 36
-15 -15 -36 -247 -22 -247 3 0 13 -18 23 -41 l18 -41 -30 -31 c-34 -36 -77
-118 -112 -217 -13 -36 -27 -69 -32 -74 -4 -6 -8 -19 -8 -30 -1 -24 -26 -61
-33 -49 -8 14 1 95 12 106 6 6 11 17 11 25 0 9 -8 4 -21 -12 -22 -28 -29 -92
-16 -156 6 -33 6 -33 -7 5 -12 38 -13 39 -25 17 -6 -12 -20 -22 -30 -22 -22 0
-36 -29 -21 -44 14 -14 13 -39 -2 -34 -7 3 -22 -7 -34 -21 -17 -20 -20 -31
-13 -50 5 -13 7 -26 4 -29 -3 -3 -5 1 -5 9 -1 8 -7 1 -15 -16 -7 -16 -14 -24
-14 -16 -1 11 -5 10 -15 -5 -24 -32 -30 -7 -7 28 17 27 21 29 22 13 l0 -20 8
20 c5 11 6 26 3 33 -2 7 6 25 19 39 14 15 18 24 9 21 -8 -2 -30 -30 -48 -61
-34 -58 -46 -68 -55 -43 -6 14 62 164 106 236 l22 35 6 -30 c6 -27 7 -25 8 13
1 53 -8 48 -49 -23 -17 -31 -36 -53 -41 -50 -5 4 -9 -5 -9 -19 0 -31 -40 -117
-51 -110 -5 3 -19 -17 -33 -44 -31 -61 -54 -82 -67 -61 -7 11 -9 11 -9 -3 0
-10 9 -22 20 -28 11 -6 20 -21 20 -33 0 -21 -1 -21 -13 3 -7 14 -23 26 -35 28
-27 4 -27 6 -1 -48 15 -30 18 -49 12 -59 -13 -21 -33 -26 -33 -8 0 8 -11 31
-25 51 -25 36 -25 37 -7 64 67 100 81 122 87 141 3 11 11 21 16 21 12 0 12 -5
-5 -45 -8 -19 -12 -35 -8 -35 10 0 72 116 71 132 0 7 -8 -4 -18 -26 l-17 -38
0 78 c0 84 -18 150 -34 124 -5 -8 -3 -22 5 -34 21 -33 29 -110 13 -127 -12
-13 -34 -46 -94 -146 -11 -19 -25 -34 -30 -34 -5 1 -8 29 -7 64 2 61 2 61 -7
17 -5 -25 -9 -63 -9 -85 l-1 -40 -26 26 -25 26 22 37 c27 46 19 59 -9 14 l-21
-32 -11 29 c-6 17 -9 46 -7 65 5 39 86 272 97 280 9 6 30 92 30 121 0 28 -14
15 -16 -14 -1 -12 -14 -53 -29 -92 -14 -38 -29 -79 -32 -90 -3 -11 -14 -39
-24 -62 -10 -24 -19 -49 -19 -56 0 -16 -62 -110 -76 -114 -14 -4 -24 50 -13
69 13 23 23 111 12 105 -6 -4 -13 -26 -17 -49 -11 -69 -64 -161 -67 -115 -3
59 -29 102 -29 49 0 -20 -6 -35 -15 -38 -8 -4 -15 -12 -15 -20 0 -24 -19 -15
-26 11 -3 14 -10 25 -15 25 -5 0 -9 14 -9 30 0 17 -4 30 -8 30 -5 0 -7 -35 -5
-77 5 -107 -4 -117 -59 -68 -24 21 -49 53 -56 69 l-12 31 6 -30 c12 -63 16
-106 10 -120 -8 -22 -54 1 -58 29 -2 11 -9 -12 -17 -51 -14 -74 -25 -89 -36
-53 -3 11 -14 27 -23 37 -14 13 -17 36 -17 113 0 84 -2 95 -13 78 -11 -14 -12
-41 -7 -112 7 -90 6 -95 -23 -157 -36 -74 -59 -106 -69 -95 -21 20 -6 274 22
386 6 21 3 19 -17 -10 l-23 -35 -3 28 c-5 39 88 227 111 227 2 0 7 -26 10 -57
5 -56 52 -193 66 -193 4 0 12 5 18 11 8 8 13 -4 18 -42 5 -34 10 -47 15 -38 9
16 -13 130 -37 189 -3 8 13 -3 37 -23 24 -20 49 -37 56 -37 6 0 17 20 24 44
l12 45 34 -35 c18 -20 38 -33 43 -30 15 10 31 74 31 125 l0 45 35 -34 c19 -19
35 -40 35 -47 0 -7 5 -13 11 -13 13 0 39 61 39 92 0 29 13 13 29 -37 29 -86
48 -86 53 0 1 36 -1 65 -5 65 -5 0 -5 5 -1 12 5 7 3 8 -5 4 -9 -6 -10 -24 -5
-62 8 -69 -8 -71 -29 -3 -31 96 -20 177 46 320 26 56 26 56 89 70 35 8 68 14
73 14 12 0 21 13 29 45 6 21 5 22 -4 7 -14 -22 -55 -42 -102 -51 -30 -5 -38
-4 -38 8 0 8 5 18 10 21 6 3 10 12 10 18 0 7 -8 0 -18 -14 -31 -48 -103 -120
-112 -114 -6 4 -10 -1 -10 -9 0 -14 -78 -56 -105 -56 -8 0 -12 -14 -11 -40 1
-40 1 -40 17 -18 9 12 15 27 12 34 -4 11 60 40 82 36 6 -1 23 16 39 38 16 22
31 38 33 36 3 -2 -7 -26 -20 -53 -14 -26 -35 -90 -47 -141 -12 -51 -26 -95
-31 -98 -5 -3 -9 -18 -9 -34 0 -61 -47 -40 -81 35 l-18 40 -1 -60 c-3 -102
-13 -160 -30 -160 -8 0 -27 19 -42 41 l-28 42 14 78 c7 44 12 81 10 83 -8 9
-24 -53 -24 -93 0 -23 -3 -46 -7 -49 -3 -4 -8 -30 -9 -58 -4 -71 -15 -79 -61
-43 -20 17 -45 42 -56 56 -17 23 -18 28 -4 49 19 30 33 94 19 85 -12 -7 -42
-91 -42 -116 0 -9 7 -31 16 -48 16 -33 16 -87 -1 -87 -5 0 -20 29 -32 65 -19
52 -23 81 -20 146 2 59 0 81 -8 77 -7 -2 -32 -43 -56 -91 -41 -80 -44 -85 -47
-55 -2 23 6 44 32 80 50 68 80 125 77 146 -3 19 50 117 74 137 8 7 15 18 15
24 0 6 -19 -9 -41 -34 -44 -49 -43 -40 4 29 45 66 17 41 -44 -39 -58 -76 -84
-94 -44 -30 14 22 25 45 25 52 0 6 18 34 41 60 65 77 37 68 -44 -13 -65 -65
-75 -81 -86 -129 -22 -99 -40 -253 -40 -355 -2 -343 -1 -416 8 -455 7 -32 7
-48 -1 -58 -9 -10 -9 -15 0 -21 7 -4 17 -41 21 -82 27 -219 42 -285 81 -339
11 -15 20 -31 20 -35 0 -4 14 -26 31 -50 17 -23 29 -51 28 -61 -2 -11 2 -35 8
-54 7 -19 15 -80 19 -135 6 -104 10 -119 24 -110 5 3 17 -14 28 -37 25 -57
101 -172 154 -232 30 -35 36 -46 20 -37 -13 7 -28 10 -35 8 -15 -5 66 -47 91
-47 20 0 52 -29 52 -48 0 -7 6 -12 13 -12 6 0 38 -23 70 -51 41 -36 69 -73 94
-122 19 -39 52 -94 73 -121 39 -53 161 -174 243 -240 33 -28 46 -45 42 -57 -9
-28 358 -379 397 -379 17 0 7 16 -29 45 -21 17 -61 53 -91 80 -173 163 -214
204 -208 213 3 5 -3 12 -14 15 -20 5 -29 27 -11 27 15 0 57 -39 43 -40 -23 0
-3 -18 36 -31 36 -11 111 -42 142 -59 9 -4 30 -11 47 -14 28 -6 31 -12 42 -63
6 -31 11 -67 11 -80 0 -13 4 -22 9 -18 5 3 7 21 4 40 -7 43 9 46 33 6 10 -16
29 -31 43 -34 14 -3 41 -19 60 -36 41 -37 71 -42 36 -6 -30 29 -33 49 -5 40
18 -6 18 -3 9 22 -5 16 -9 38 -8 48 4 35 -1 70 -11 85 -16 25 -25 1 -22 -61 3
-63 -14 -83 -24 -29 -4 17 -10 30 -15 30 -20 0 1 -55 30 -77 14 -11 14 -12 -4
-13 -12 0 -36 19 -59 46 -28 33 -41 42 -47 32 -10 -16 -15 -10 -24 30 -5 23
-3 33 7 36 31 9 127 26 170 29 39 4 45 2 40 -11 -4 -12 -1 -14 14 -7 29 12 32
12 263 -33 38 -8 46 -18 62 -81 7 -30 13 -40 19 -31 6 9 19 -4 46 -46 21 -32
46 -65 56 -72 10 -7 25 -26 33 -43 9 -16 22 -29 30 -29 23 0 18 18 -11 36 -18
12 -22 20 -14 28 8 8 14 7 21 -4 8 -11 9 -6 6 20 -2 21 1 40 9 48 12 11 14 10
14 -8 0 -18 4 -20 34 -14 33 6 35 5 45 -33 15 -51 14 -52 -12 -87 -13 -17 -49
-72 -80 -122 -69 -111 -147 -197 -168 -183 -8 5 -27 9 -42 9 -16 0 -37 5 -48
10 -13 8 -26 7 -41 -1 -31 -15 -148 -131 -148 -145 0 -18 -60 -23 -176 -17
-95 5 -108 4 -132 -14 -32 -23 -272 -95 -387 -116 -44 -8 -137 -38 -207 -67
-111 -46 -138 -61 -202 -119 -122 -109 -232 -198 -267 -217 -19 -9 -50 -29
-69 -44 -19 -14 -75 -50 -123 -80 -72 -43 -106 -74 -186 -164 -54 -61 -109
-127 -122 -147 -13 -19 -50 -74 -81 -121 -32 -47 -58 -90 -58 -95 0 -14 -72
-124 -104 -159 -45 -50 -85 -118 -92 -154 -4 -19 -15 -44 -25 -55 -46 -51 -65
-155 -75 -410 -2 -60 -11 -142 -19 -183 -9 -40 -18 -131 -22 -200 -5 -114 -9
-136 -40 -210 -19 -46 -32 -91 -30 -100 2 -11 10 -1 22 28 11 24 29 64 42 88
16 29 23 60 23 96 0 78 20 266 31 304 6 18 15 86 20 150 20 271 35 359 67 412
12 19 22 44 22 55 0 11 8 30 18 43 l18 23 27 -22 c25 -19 35 -20 85 -13 41 6
49 9 27 11 -42 4 -108 23 -122 35 -10 8 -7 18 15 43 52 64 120 161 148 215 16
30 30 57 31 59 2 2 25 -8 52 -22 51 -28 81 -34 81 -17 0 6 -5 10 -12 10 -20 0
-108 43 -108 53 0 26 121 185 197 260 104 102 182 164 293 232 148 91 175 109
208 137 18 15 54 39 81 52 26 14 75 53 107 86 89 93 234 163 398 191 39 7 83
18 98 25 33 17 199 54 210 48 4 -3 3 -14 -2 -25 -14 -24 -1 -49 12 -25 6 11
14 14 25 8 9 -5 37 -4 70 4 77 18 215 11 287 -15 49 -18 82 -21 202 -21 142 0
202 -10 188 -31 -10 -16 15 -29 59 -29 28 0 44 -7 62 -26 13 -14 32 -24 42
-22 13 2 4 12 -31 36 -27 17 -56 32 -65 32 -8 0 -27 12 -42 26 -35 33 -71 40
-239 43 -100 1 -152 7 -199 22 -35 10 -72 19 -82 19 -23 0 -24 10 -4 36 13 17
14 17 15 2 0 -24 16 -23 23 2 3 13 14 20 28 20 18 0 20 -3 11 -12 -7 -7 -12
-17 -12 -23 0 -5 12 5 26 23 31 38 52 43 27 5 -14 -21 -14 -25 -3 -21 8 2 19
19 24 36 16 52 80 66 153 32 l42 -19 21 29 c18 25 177 137 240 168 14 7 61 42
105 77 44 35 112 80 150 99 53 26 79 47 103 81 51 73 71 86 -293 -191 -33 -26
-82 -57 -108 -71 -27 -13 -70 -40 -97 -59 -27 -20 -54 -33 -59 -30 -5 4 -24
-11 -42 -33 -32 -38 -33 -38 -66 -25 -47 20 -78 17 -144 -12 -91 -41 -91 -14
-1 48 47 33 137 47 183 30 20 -8 30 -5 52 14 15 12 27 26 27 29 0 4 12 22 26
41 17 22 33 33 43 29 9 -2 23 0 31 5 12 8 10 10 -9 10 -20 0 -22 2 -10 16 9
11 23 14 46 11 35 -6 46 8 14 18 -12 4 -18 12 -14 20 4 11 10 12 23 5 24 -13
40 -13 40 0 0 6 -11 10 -25 10 -29 0 -31 10 -11 49 22 41 44 56 82 52 19 -1
34 2 34 8 0 6 -13 9 -30 7 -32 -4 -35 0 -21 23 6 9 11 10 15 2 9 -14 46 -15
46 -1 0 6 -6 10 -14 10 -19 0 -40 26 -26 35 5 3 10 22 10 41 0 39 5 41 33 17
19 -16 20 -16 14 -1 -3 9 -9 33 -13 53 -6 36 -6 36 22 30 64 -15 64 -15 58
-43 -4 -20 -3 -23 4 -13 9 12 13 13 26 2 12 -10 13 -17 6 -26 -8 -10 -6 -15
10 -20 11 -3 34 -18 50 -32 20 -17 36 -23 48 -18 9 4 12 9 6 12 -8 2 -7 21 4
61 9 31 17 58 18 60 1 2 13 -4 27 -12 13 -9 31 -14 40 -11 17 7 87 -25 107
-50 8 -10 13 -34 13 -54 -1 -21 6 -49 15 -63 9 -13 36 -53 60 -88 23 -35 42
-68 42 -73 0 -18 -60 44 -97 101 -19 29 -51 67 -69 84 -19 18 -34 37 -34 43 0
25 -94 92 -105 75 -3 -5 6 -12 20 -16 26 -7 33 -20 13 -26 -7 -3 6 -21 30 -42
22 -21 79 -88 125 -149 107 -142 118 -153 146 -135 12 7 21 18 21 24 0 14 -97
204 -111 219 -19 20 -8 27 34 21 122 -18 148 -26 227 -70 47 -26 112 -69 145
-96 33 -27 66 -49 73 -49 15 -1 15 1 2 33 -7 18 -6 26 2 26 20 0 140 -61 198
-100 56 -38 57 -39 78 -122 12 -46 23 -102 25 -125 1 -24 7 -43 13 -43 7 0 14
-9 17 -21 8 -31 42 -17 107 47 31 30 60 54 66 54 19 0 84 -56 120 -104 19 -25
42 -46 50 -46 8 0 47 -32 86 -70 39 -39 79 -75 88 -80 25 -13 60 15 60 48 0
15 7 38 16 50 12 18 19 20 35 11 12 -6 23 -8 26 -5 3 3 15 -1 27 -9 11 -8 28
-15 37 -15 9 0 29 -17 44 -37 50 -67 87 -89 99 -57 4 11 1 14 -12 10 -13 -4
-25 3 -40 24 -30 39 -28 48 10 52 27 3 34 8 43 38 5 19 13 40 17 45 12 19 -34
217 -52 223 -9 3 -11 -3 -6 -24 13 -57 28 -203 23 -219 -9 -21 -55 -37 -88
-30 -18 4 -33 18 -43 40 -9 19 -30 47 -46 64 -17 16 -30 34 -30 39 0 6 -22 24
-48 41 -50 32 -85 72 -94 107 -5 19 -3 20 36 13 59 -12 141 -11 210 2 92 17
92 18 70 33 -35 25 -117 20 -153 -8 -17 -13 -123 -12 -148 3 -17 10 -16 10 4
11 12 0 25 5 28 10 3 6 -1 10 -10 10 -36 0 -86 34 -115 78 -37 56 -37 71 1
100 28 22 32 23 86 11 44 -10 58 -10 61 -1 2 7 21 12 42 12 22 0 40 5 43 13 3
8 10 7 26 -7 21 -19 30 -43 11 -31 -15 9 -12 -11 4 -24 26 -22 27 18 0 60 -28
45 -27 56 4 40 13 -7 28 -38 43 -86 17 -54 26 -70 32 -59 5 9 5 27 -1 42 -28
75 -24 78 31 27 56 -52 55 -43 -4 25 -29 33 -55 60 -59 60 -4 0 -10 15 -14 32
-4 18 -15 51 -25 73 -11 22 -29 64 -42 93 -15 36 -41 71 -84 110 -53 49 -63
63 -69 102 -9 55 -30 90 -56 90 -10 0 -22 5 -25 10 -8 13 -2 13 56 -6 38 -13
57 -27 81 -60 17 -24 34 -44 37 -44 15 0 2 63 -15 73 -10 6 -23 14 -29 19 -51
41 -120 91 -165 120 -81 52 -226 201 -241 246 -7 20 -18 46 -26 58 -7 12 -11
29 -7 38 4 11 2 15 -7 12 -8 -2 -42 28 -79 71 -36 41 -78 87 -94 101 -16 15
-65 64 -109 110 -45 46 -88 82 -99 82 -10 0 -40 21 -66 48 -72 72 -152 160
-152 165 0 3 8 4 18 3 11 -1 16 5 14 17 -4 21 11 22 28 2 7 -8 9 -15 5 -15
-16 0 75 -103 219 -245 83 -83 179 -182 214 -220 59 -66 68 -59 16 12 -13 17
-24 35 -24 39 0 23 -101 154 -170 221 -84 81 -180 193 -180 211 0 5 -6 15 -14
21 -8 7 -25 36 -39 65 -14 30 -39 69 -55 87 -35 42 -132 180 -152 220 -8 16
-20 29 -26 29 -16 0 -51 42 -68 80 -8 19 -40 60 -70 90 -31 30 -56 62 -56 71
0 45 -61 242 -94 303 -22 42 -34 76 -31 87 8 23 -28 121 -56 158 -25 32 -116
158 -162 226 -20 28 -77 90 -129 139 -51 49 -120 116 -154 148 -33 32 -67 58
-75 58 -10 -1 -8 -5 6 -16 13 -10 16 -17 9 -22 -6 -4 -14 -29 -17 -56 -10 -68
-26 -126 -37 -126 -11 0 -83 108 -98 148 -7 18 -17 46 -23 62 -15 39 -29 38
-29 -1 0 -24 -3 -30 -16 -25 -9 3 -18 6 -20 6 -13 0 -1 31 16 40 12 7 20 21
20 37 0 14 12 46 26 71 15 25 24 52 21 63 -9 34 19 3 59 -65 59 -98 65 -108
70 -103 14 14 -67 148 -130 216 -57 61 -209 162 -281 186 -16 6 -30 17 -30 25
0 8 -10 21 -23 28 -13 8 -32 32 -42 55 -17 37 -17 44 -4 76 8 20 21 39 29 44
8 4 15 15 15 22 0 8 5 15 10 15 6 0 10 7 10 15 0 8 6 14 13 13 7 -2 13 9 15
25 2 15 7 27 12 27 5 0 20 24 34 54 28 59 47 80 39 44 -4 -19 -3 -20 6 -8 6 8
11 24 11 34 0 33 87 106 164 138 123 52 204 71 361 86 72 7 95 15 95 33 0 6
10 20 23 31 l22 20 -23 -6 c-18 -3 -35 5 -67 35 -50 47 -126 74 -250 90 -145
19 -224 18 -305 -3z m28 -989 c77 -52 122 -100 122 -130 0 -39 -20 -51 -58
-37 -26 10 -32 18 -32 43 0 16 -9 48 -20 70 -13 26 -19 31 -16 16 3 -14 0 -31
-7 -39 -6 -8 -12 -41 -12 -74 -1 -72 -16 -86 -70 -67 -42 15 -48 30 -28 59 12
16 18 19 23 9 13 -20 52 118 40 141 -26 49 -6 51 58 9z m64 -211 c19 -11 22
-19 18 -43 -6 -32 -37 -47 -51 -24 -4 7 -11 10 -15 6 -4 -3 -1 -13 6 -22 10
-12 10 -24 -1 -61 -19 -63 -32 -71 -61 -36 l-24 29 -13 -44 c-15 -48 -43 -57
-49 -15 -3 16 2 22 16 22 14 0 21 9 26 31 9 45 8 61 -4 54 -5 -3 -10 -19 -10
-36 0 -36 -6 -36 -50 0 -36 30 -37 51 -3 32 15 -7 27 -5 50 8 25 16 33 17 54
6 29 -16 49 -4 49 31 0 30 17 74 29 74 5 0 19 -6 33 -12z m3 -160 c21 -9 28
-9 35 2 6 9 15 -1 34 -38 30 -60 33 -98 7 -131 l-18 -23 -53 36 c-29 20 -56
36 -60 36 -16 0 -15 36 2 70 10 19 18 40 18 47 0 16 2 16 35 1z m328 -78 c86
-68 83 -51 45 -200 -11 -41 -22 -90 -25 -107 -3 -18 -9 -30 -14 -27 -12 7 -53
88 -93 183 -27 65 -31 83 -24 121 12 70 18 90 27 90 4 0 43 -27 84 -60z m-413
-12 c6 -21 19 -42 28 -46 9 -3 36 -21 60 -39 24 -18 52 -33 63 -33 10 0 19 -4
19 -9 0 -5 3 -17 7 -27 5 -14 2 -16 -22 -10 -25 6 -27 5 -16 -8 8 -9 18 -16
24 -16 13 0 67 -50 67 -62 0 -4 -7 -8 -16 -8 -8 0 -12 -4 -9 -10 3 -5 15 -10
25 -10 11 0 42 -29 76 -70 32 -38 61 -70 64 -70 3 0 11 -15 18 -34 7 -18 21
-41 32 -51 11 -10 20 -29 20 -43 0 -21 -2 -23 -16 -11 -9 8 -50 32 -92 54 -75
39 -77 41 -103 107 -15 38 -46 89 -68 115 -23 28 -46 71 -56 103 -23 77 -37
102 -62 111 -17 6 -23 5 -23 -6 0 -8 6 -15 14 -15 7 0 19 -7 27 -16 11 -13 10
-21 -7 -51 -32 -61 -79 -70 -187 -36 -27 8 -51 12 -54 9 -13 -13 142 -59 170
-50 26 8 21 -9 -16 -58 -50 -65 -98 -88 -172 -83 -49 4 -64 10 -82 30 -30 35
-29 49 12 129 22 44 33 76 29 91 -5 20 -2 22 38 20 24 -1 53 -7 65 -13 13 -7
34 -10 47 -6 20 5 25 1 29 -18 5 -21 5 -21 4 3 -1 14 8 38 21 53 37 48 25 60
-16 16 -41 -42 -66 -49 -97 -27 -42 32 13 121 57 93 20 -12 48 8 48 34 0 48
35 26 50 -32z m273 -96 c18 3 27 -10 57 -82 20 -47 43 -99 53 -117 20 -37 22
-88 5 -99 -14 -9 -100 83 -157 168 -45 66 -58 118 -40 160 l12 30 25 -32 c16
-20 31 -30 45 -28z m-533 -2 c-7 -4 -9 -16 -6 -28 8 -24 -44 -129 -79 -162
l-23 -22 -87 46 c-48 26 -90 45 -92 42 -5 -5 131 -86 146 -86 5 0 13 -4 16
-10 14 -22 -69 -134 -93 -125 -8 3 -20 1 -26 -4 -8 -7 -22 -5 -41 5 -39 20
-45 9 -6 -13 17 -10 31 -22 31 -26 0 -10 -39 -87 -44 -87 -3 0 -11 -3 -20 -6
-28 -11 -20 124 18 335 17 98 27 112 50 77 20 -31 51 -34 68 -6 9 14 19 18 35
14 13 -4 29 -1 36 4 8 7 18 7 27 2 20 -12 47 5 65 41 9 16 21 27 26 23 8 -4 7
-9 -1 -14z m817 -27 c24 -27 46 -59 49 -72 8 -27 -1 -167 -11 -193 -16 -41
-92 -4 -124 60 -16 34 -17 42 -4 97 8 33 17 72 20 87 8 41 23 23 23 -27 0 -24
5 -47 10 -50 16 -10 12 76 -5 109 -28 54 -13 50 42 -11z m123 -170 c25 -37 62
-88 84 -112 43 -51 76 -119 76 -160 0 -15 18 -64 40 -110 22 -46 48 -113 57
-150 9 -36 25 -83 35 -104 19 -39 16 -68 -4 -34 -5 10 -29 42 -52 71 -60 73
-79 103 -71 115 3 6 -10 47 -30 91 -19 45 -35 87 -35 94 0 17 -98 214 -99 199
-1 -6 17 -49 39 -94 22 -46 40 -88 40 -95 0 -6 16 -51 35 -99 20 -48 34 -89
32 -91 -7 -8 -65 83 -107 168 -23 47 -59 107 -80 132 -35 42 -37 49 -29 83 5
21 9 66 9 101 0 34 3 62 8 62 4 0 27 -30 52 -67z m-517 -13 c63 -74 69 -150
11 -150 -32 0 -36 12 -13 46 10 16 19 38 19 48 0 13 -8 7 -26 -20 -49 -74 -63
-84 -114 -84 -62 0 -84 23 -74 75 5 27 4 36 -5 31 -6 -4 -11 -16 -11 -27 0
-50 -47 -98 -96 -99 -44 0 -57 18 -42 58 7 18 19 32 28 32 8 0 38 12 65 25 31
16 67 25 96 25 42 0 50 4 80 39 19 22 37 40 41 40 3 1 22 -17 41 -39z m-472
-32 c11 -24 25 -35 59 -46 25 -8 47 -16 48 -18 9 -7 -11 -44 -24 -44 -8 0 -28
-14 -44 -31 -18 -20 -33 -29 -42 -24 -49 29 -108 70 -108 75 0 4 6 13 14 19 8
6 20 26 27 44 12 29 35 56 50 57 3 0 12 -14 20 -32z m939 -150 c24 -29 63 -93
87 -143 25 -49 76 -130 113 -180 38 -49 68 -90 67 -92 -2 -1 -27 5 -57 14 -57
17 -84 40 -158 138 -21 28 -57 85 -79 127 -38 71 -41 81 -36 133 3 30 9 55 14
55 4 0 26 -24 49 -52z m-1898 -13 c6 -7 17 0 33 19 l24 29 12 -62 c11 -50 19
-66 39 -76 14 -8 40 -27 58 -43 28 -24 31 -32 23 -53 -5 -13 -10 -20 -10 -16
-2 20 -31 -24 -31 -46 0 -29 -19 -88 -32 -102 -10 -10 -3 76 8 118 3 9 1 17
-5 17 -5 0 -11 -12 -13 -27 -4 -28 -4 -28 -16 7 l-12 35 5 -40 c3 -22 8 -57
11 -79 l7 -38 -34 17 c-45 23 -49 31 -49 90 0 43 12 90 45 168 8 20 2 21 -26
6 -11 -5 -17 -14 -14 -18 2 -5 -2 -34 -10 -65 -19 -73 -19 -150 -1 -165 8 -7
18 -25 21 -41 9 -39 30 -56 50 -40 25 21 26 6 2 -28 -25 -35 -37 -36 -52 -4
-5 12 -17 22 -25 22 -9 0 -22 6 -30 13 -12 10 -12 9 -1 -5 11 -15 11 -18 0
-18 -10 0 -10 -3 -1 -12 16 -16 15 -40 -1 -62 -11 -15 -17 -17 -35 -7 -15 8
-22 8 -22 1 0 -12 41 -30 53 -23 11 6 9 -25 -3 -48 -18 -33 -36 -21 -63 46
-29 71 -33 95 -16 95 6 0 9 7 6 15 -4 8 4 22 16 32 12 10 33 34 46 53 22 31
20 30 -17 -9 -44 -47 -55 -46 -66 3 -6 25 -5 28 11 21 43 -18 49 -16 66 21 22
45 15 56 -9 15 -22 -37 -27 -38 -52 -6 -11 14 -25 25 -31 25 -6 0 -11 17 -11
39 0 32 6 46 33 70 17 17 35 31 38 31 3 0 4 -24 1 -52 -2 -29 1 -64 6 -78 8
-19 10 -3 9 70 0 54 5 112 12 133 7 21 10 41 7 44 -3 3 2 20 12 37 l16 31 4
-25 c2 -14 8 -29 14 -35z m631 -47 c-2 -57 -9 -104 -14 -106 -5 -2 -9 -16 -8
-30 l1 -27 8 25 c5 17 8 19 9 7 1 -23 -90 -157 -107 -157 -30 0 -52 21 -52 50
0 24 4 30 23 30 14 0 31 13 47 37 63 94 62 93 48 93 -7 0 -21 -14 -30 -30 -18
-31 -61 -55 -85 -46 -11 5 -11 11 2 36 17 32 39 42 28 13 -9 -27 8 -6 51 60
21 31 44 78 53 102 8 25 19 45 23 45 5 0 6 -46 3 -102z m227 87 c16 -8 46 -26
66 -40 20 -14 41 -25 46 -25 5 0 22 14 38 31 l28 32 35 -22 c49 -30 87 -27
124 9 28 27 33 29 41 15 5 -10 24 -20 42 -24 30 -6 35 -12 59 -81 46 -126 107
-260 162 -355 65 -112 143 -274 135 -282 -8 -9 -93 63 -166 140 -36 38 -114
122 -175 186 -60 64 -141 163 -180 220 -64 96 -108 142 -121 128 -3 -3 3 -10
13 -15 11 -6 46 -50 78 -99 72 -108 156 -223 206 -283 61 -73 147 -240 124
-240 -4 0 -25 13 -48 29 -23 15 -64 41 -92 56 -31 17 -113 92 -215 195 -91 92
-190 186 -221 209 -45 33 -58 49 -63 76 -9 45 -26 46 -19 1 4 -24 -3 -51 -22
-95 -15 -33 -31 -61 -36 -61 -11 0 -22 59 -20 110 1 35 7 49 27 64 14 10 36
41 50 68 27 53 42 57 61 16 7 -14 29 -36 48 -49 20 -13 59 -58 87 -99 29 -41
90 -118 138 -171 47 -53 113 -130 148 -172 34 -42 76 -84 93 -93 43 -22 48
-11 6 15 -32 19 -63 54 -195 216 -31 38 -71 84 -89 103 -17 18 -53 63 -79 100
-26 37 -71 90 -101 117 -29 28 -53 58 -53 68 0 21 3 21 40 2z m-926 -57 c7 -5
1 -26 -19 -65 -41 -79 -57 -81 -50 -6 4 40 2 52 -4 38 -5 -11 -10 -36 -10 -55
-2 -53 -13 -110 -21 -105 -4 2 -5 -7 -2 -22 3 -18 1 -24 -7 -19 -8 6 -11 0 -9
-16 4 -33 -12 -127 -23 -133 -16 -10 -24 49 -24 178 0 70 -3 127 -6 127 -3 0
-9 -39 -13 -87 -10 -114 -48 -186 -115 -214 -13 -5 -26 -7 -29 -5 -2 3 5 31
16 63 27 74 38 148 23 157 -7 5 -11 -7 -11 -36 0 -23 -12 -78 -26 -121 -15
-42 -24 -80 -21 -83 12 -12 70 9 105 39 20 18 32 26 28 18 -5 -8 -3 -16 5 -21
10 -7 7 -17 -14 -47 -28 -40 -102 -103 -122 -103 -19 0 -26 95 -13 176 11 71
11 74 -15 112 -21 32 -24 47 -20 81 3 22 9 41 13 41 4 0 18 -20 31 -45 26 -50
31 -46 43 38 l7 49 38 -7 c35 -6 39 -4 45 19 3 13 3 32 0 40 -11 28 10 17 51
-24 44 -45 53 -40 54 32 1 42 16 58 26 28 10 -32 37 -22 50 20 l8 25 10 -30
c6 -16 15 -33 21 -37z m1582 47 c3 -8 31 -26 63 -40 56 -26 56 -27 79 -97 13
-40 30 -115 39 -167 16 -97 38 -153 99 -249 19 -29 34 -55 34 -58 0 -3 25 -55
54 -115 30 -60 51 -109 46 -109 -5 0 -14 9 -20 20 -6 11 -28 29 -50 40 -52 26
-202 152 -266 223 -66 71 -124 177 -191 345 -70 173 -72 184 -37 200 16 6 31
12 34 12 10 0 68 -120 79 -165 6 -22 34 -78 62 -125 29 -47 63 -107 77 -135
23 -43 27 -47 30 -27 2 13 -4 31 -12 40 -30 31 -87 126 -112 184 -28 66 -30
80 -9 52 8 -10 15 -14 15 -8 0 15 -39 63 -40 49 0 -5 -14 19 -30 55 l-29 65
22 3 c12 2 26 8 32 13 13 13 25 11 31 -6z m198 -138 c13 -23 41 -58 62 -79 41
-38 94 -103 145 -176 28 -41 33 -43 64 -38 32 6 35 4 49 -28 8 -19 31 -60 52
-93 53 -81 156 -291 149 -303 -3 -5 4 -14 16 -20 21 -12 62 -90 75 -145 6 -27
-1 -22 -74 48 -45 42 -86 77 -92 77 -8 0 -82 64 -266 230 -23 21 -64 81 -98
144 -50 93 -62 123 -77 209 -10 56 -17 103 -15 105 2 1 19 -23 37 -54 19 -31
44 -73 56 -93 13 -20 23 -44 23 -54 0 -25 195 -332 228 -359 19 -16 19 -16
-52 92 -27 41 -69 105 -92 142 -24 36 -44 70 -44 76 0 20 -49 119 -73 148 -13
16 -30 40 -37 54 -7 14 -27 48 -46 75 -18 28 -36 64 -40 80 -7 27 -6 29 9 17
9 -8 27 -32 41 -55z m86 36 c16 4 26 -3 44 -31 13 -20 26 -47 30 -59 7 -21 63
-100 121 -171 31 -36 31 -37 -6 -45 -29 -7 -45 7 -91 78 -14 22 -54 69 -88
105 -80 85 -93 105 -85 129 6 19 8 20 31 5 13 -9 33 -14 44 -11z m-989 -104
c16 -11 29 -29 29 -40 0 -10 4 -19 9 -19 4 0 32 -41 60 -91 29 -51 67 -111 84
-134 57 -74 213 -236 230 -239 10 -1 23 -8 29 -14 7 -7 19 -12 28 -12 13 1 13
2 -1 10 -9 5 -49 48 -89 95 -40 47 -77 85 -83 85 -6 0 5 -17 24 -37 72 -78 94
-106 82 -102 -7 2 -58 54 -113 114 -89 96 -138 165 -199 280 -9 17 -23 39 -31
49 -36 47 30 -12 106 -94 149 -161 246 -251 297 -277 67 -33 157 -100 157
-116 0 -14 66 -105 108 -151 25 -26 19 -24 -67 20 -89 46 -94 51 -108 94 -8
25 -31 65 -51 90 -20 25 -37 47 -39 49 -2 2 -5 2 -8 -1 -3 -2 15 -40 40 -84
25 -43 45 -82 45 -86 0 -12 -26 -10 -86 8 -47 13 -62 25 -116 87 -34 40 -104
112 -155 161 -51 48 -103 105 -115 125 -12 20 -35 53 -51 74 -49 64 -76 128
-64 154 12 28 12 28 48 2z m-1293 -64 c-4 -20 -2 -23 8 -14 34 28 42 -76 12
-171 -11 -36 -59 -120 -68 -120 -11 0 -29 86 -32 145 -2 46 2 66 16 85 17 24
18 24 11 3 -13 -47 4 -21 21 30 19 58 23 67 31 67 3 0 3 -11 1 -25z m1299
-107 c9 -10 26 -34 37 -53 12 -18 80 -94 152 -169 133 -137 133 -137 176 -263
15 -44 5 -63 -33 -63 -23 0 -40 10 -68 39 -67 71 -159 188 -216 275 -31 47
-61 88 -66 91 -14 10 -86 138 -93 168 -5 21 -1 38 15 64 l22 35 28 -53 c16
-29 37 -61 46 -71z m-977 17 c0 -8 3 -15 8 -15 14 0 31 -73 21 -93 -9 -16 -5
-84 8 -129 2 -10 0 -18 -6 -18 -5 0 -12 10 -16 23 -3 12 -11 32 -17 44 -8 17
-8 30 0 48 18 39 14 51 -8 27 -11 -11 -19 -31 -18 -44 1 -13 -4 -47 -11 -76
-10 -40 -10 -57 -2 -65 8 -8 11 1 12 34 0 33 2 39 8 24 5 -11 18 -29 30 -39
12 -11 31 -35 42 -53 21 -33 21 -35 3 -101 -9 -37 -22 -76 -28 -87 -5 -11 -9
-29 -8 -40 l2 -20 -9 20 c-5 11 -10 41 -10 67 -1 80 -29 183 -46 167 -3 -3 2
-26 10 -50 15 -42 19 -74 30 -294 l5 -100 -50 77 c-40 62 -50 86 -50 120 0 57
9 88 25 88 10 0 14 24 17 93 2 50 2 94 1 96 -7 11 -12 -10 -21 -79 l-8 -75
-14 45 c-7 25 -14 68 -14 95 -1 28 -5 53 -9 56 -5 4 0 24 10 46 14 28 17 47
11 68 -5 19 -4 41 3 58 l12 28 20 -33 20 -33 13 35 c7 19 13 50 13 68 1 31 21
48 21 17z m2256 -75 c8 0 21 -18 30 -40 9 -22 27 -49 41 -60 27 -21 86 -102
140 -190 18 -30 33 -48 33 -39 0 34 -140 238 -169 246 -14 4 -46 62 -38 69 1
1 16 -1 34 -3 22 -4 36 -13 45 -32 7 -15 40 -51 72 -80 33 -28 72 -73 86 -99
14 -26 44 -70 67 -99 27 -34 48 -77 63 -125 12 -40 44 -114 71 -165 27 -50 49
-96 49 -102 0 -23 -25 -9 -69 40 -25 29 -93 90 -151 136 -115 92 -139 123
-204 258 -23 50 -68 132 -99 184 -54 89 -63 119 -30 107 8 -3 21 -6 29 -6z
m-2376 -83 c0 -31 -33 -61 -60 -54 -31 8 -35 -12 -4 -23 l27 -11 -6 -85 c-5
-94 -20 -128 -32 -72 -8 36 -41 78 -62 78 -19 0 -34 44 -26 80 4 24 10 29 23
25 12 -4 36 9 72 39 29 24 56 45 61 45 4 1 7 -10 7 -22z m1685 -28 c41 -54
177 -179 217 -199 25 -14 47 -36 121 -123 27 -31 54 -57 60 -57 6 0 -5 17 -24
38 -59 62 -119 139 -119 152 0 6 -15 43 -34 81 -32 66 -34 88 -5 52 8 -9 46
-43 84 -76 51 -45 73 -71 82 -99 6 -21 31 -70 55 -109 23 -38 51 -83 62 -100
10 -16 17 -32 14 -34 -2 -2 -52 21 -111 51 -114 58 -137 80 -194 187 -24 44
-43 60 -43 37 0 -5 30 -53 67 -107 100 -148 146 -245 116 -243 -5 1 -48 40
-98 87 -49 47 -85 83 -78 79 16 -9 27 30 13 51 -9 15 -10 13 -5 -10 5 -25 3
-27 -12 -18 -23 12 -60 54 -99 111 -21 30 -33 61 -36 95 -5 54 -22 96 -63 163
-36 58 -17 53 30 -9z m-1299 -154 c13 -50 -13 -75 -76 -75 -34 1 -58 21 -71
59 -14 41 0 59 49 63 47 4 90 -17 98 -47z m-386 -35 c15 -71 15 -78 12 -225
l-3 -100 -38 81 c-21 45 -44 84 -50 88 -6 4 -11 22 -11 40 0 19 -7 53 -15 76
-18 51 -20 69 -4 53 6 -6 16 -32 22 -57 7 -26 17 -48 22 -49 15 -3 37 72 37
126 0 62 11 50 28 -33z m-165 40 c4 -16 12 -33 19 -37 18 -11 36 -69 36 -114
0 -21 6 -44 13 -51 34 -36 47 -70 47 -125 0 -91 -15 -95 -29 -9 -8 48 -21 88
-37 112 -34 49 -94 170 -94 188 0 24 19 66 29 66 5 0 12 -13 16 -30z m2484
-118 c52 -48 109 -96 127 -107 17 -11 80 -66 139 -122 59 -57 112 -103 117
-103 15 0 4 23 -17 34 -26 14 -44 38 -45 55 0 21 64 -43 114 -112 57 -81 82
-125 74 -132 -9 -10 -289 135 -295 154 -9 25 -73 93 -116 124 -84 61 -167 159
-208 244 -21 45 -39 85 -39 88 0 10 45 -28 149 -123z m-179 7 c0 -4 13 -23 28
-41 16 -18 43 -63 60 -100 17 -38 35 -68 40 -68 5 0 -10 38 -33 85 -35 70 -39
83 -22 72 12 -7 26 -22 31 -33 6 -10 18 -24 26 -30 70 -54 210 -177 222 -196
9 -14 12 -31 8 -43 -4 -11 -6 -23 -4 -27 6 -9 -65 2 -88 13 -9 5 -63 12 -119
16 l-103 6 -71 58 c-51 41 -76 69 -87 98 -9 23 -13 41 -10 41 4 0 49 -23 101
-50 51 -28 100 -50 107 -50 19 0 2 36 -57 125 -56 84 -90 150 -82 158 7 7 53
-22 53 -34z m-578 -33 c26 -9 55 -13 63 -10 32 13 195 -97 195 -130 0 -5 -16
5 -35 24 -19 19 -35 29 -35 24 0 -15 52 -62 74 -66 33 -6 78 -72 83 -123 7
-57 -11 -74 -77 -75 -69 0 -92 9 -84 32 10 33 -39 92 -148 177 -90 70 -105 86
-116 123 -7 24 -16 49 -19 57 -4 11 1 10 23 -2 16 -9 50 -23 76 -31z m-724
-54 c-2 -58 -5 -71 -25 -85 -18 -14 -27 -15 -43 -7 -25 14 -25 31 0 60 11 13
20 28 20 33 0 6 -9 2 -20 -8 -15 -14 -20 -15 -21 -4 0 14 -4 7 -37 -73 -16
-41 -39 -48 -87 -26 -40 18 -32 41 14 36 36 -3 40 -1 50 28 6 17 11 38 11 47
0 12 9 17 33 19 17 1 39 2 47 4 8 1 20 2 27 3 6 1 15 10 18 21 12 36 16 21 13
-48z m1987 -3 c15 -23 44 -60 64 -83 21 -22 48 -61 60 -86 40 -79 128 -203
178 -251 134 -130 180 -179 205 -219 15 -25 26 -46 25 -47 -4 -3 -311 299
-338 334 -16 19 -26 39 -23 44 2 5 -13 25 -36 45 -22 20 -43 47 -46 60 -3 13
-12 24 -20 24 -15 0 -51 66 -84 151 -31 83 -27 91 15 28z m-1448 -127 c6 -34
-14 -149 -27 -157 -5 -3 -18 11 -29 31 -12 20 -30 38 -41 41 -18 5 -20 13 -19
74 1 45 6 73 15 80 8 6 14 24 14 39 0 14 3 30 6 33 10 10 75 -104 81 -141z
m223 13 c95 -75 134 -122 124 -149 -8 -22 -16 -21 -107 16 -65 27 -93 46 -158
109 -43 42 -79 80 -79 85 0 5 30 9 66 9 l66 -1 88 -69z m325 -15 c96 -90 135
-110 135 -70 0 20 3 19 44 -9 93 -64 120 -126 64 -145 -27 -9 -68 -3 -210 35
l-37 10 6 49 c7 61 -9 98 -73 169 -73 81 -34 60 71 -39z m859 -65 c32 -33 66
-72 75 -86 9 -14 67 -80 129 -146 78 -83 122 -138 141 -179 15 -32 67 -116
114 -185 90 -131 134 -172 252 -232 49 -25 240 -206 200 -190 -52 21 -105 55
-105 67 0 7 -23 28 -52 46 -57 38 -98 73 -273 234 -247 230 -247 229 -300 332
-29 56 -65 109 -85 126 -19 17 -42 40 -50 53 -83 125 -176 235 -199 235 -9 0
-31 53 -31 72 0 14 116 -79 184 -147z m-1573 129 c24 -29 30 -123 11 -186 -9
-32 -22 -58 -28 -58 -12 0 -48 48 -50 65 0 6 -6 28 -12 50 -14 49 -15 55 -2
55 5 0 22 -24 36 -52 15 -29 29 -48 31 -42 2 5 -7 31 -21 55 -25 48 -20 84 9
73 8 -4 15 -1 15 5 0 6 -4 11 -10 11 -5 0 -10 9 -10 20 0 24 13 26 31 4z
m-1189 -121 c5 10 7 30 4 45 l-7 27 21 -25 c11 -14 17 -31 13 -40 -15 -34 -14
-128 2 -197 10 -41 14 -77 10 -81 -4 -4 -29 18 -55 48 -49 55 -79 127 -64 152
5 7 10 36 12 63 5 78 11 85 33 35 18 -39 22 -43 31 -27z m1067 -18 c11 -64 6
-161 -9 -170 -4 -3 -26 15 -48 39 -27 30 -42 56 -47 85 -4 25 -15 47 -26 54
-18 11 -27 37 -11 37 4 -1 23 -14 42 -31 l35 -30 12 28 c6 15 14 36 17 46 10
32 24 9 35 -58z m-131 -68 c5 -7 12 -37 15 -67 4 -30 9 -65 13 -77 18 -62 -79
15 -116 93 -19 39 -24 58 -17 77 7 22 12 25 43 20 25 -4 34 -2 35 8 0 8 5 1 9
-14 5 -16 13 -34 18 -40z m615 -13 c18 -9 41 -24 52 -34 11 -10 29 -20 40 -22
12 -2 21 -13 23 -26 2 -12 8 -20 13 -17 9 6 10 5 14 -42 1 -16 6 -44 10 -63 7
-33 7 -34 -8 -15 -16 20 -16 20 -10 -4 5 -21 4 -22 -18 -15 -13 4 -33 8 -43 9
-11 1 -35 19 -53 40 -28 32 -33 35 -33 17 0 -11 12 -34 26 -51 14 -17 23 -35
20 -40 -4 -5 1 -28 10 -51 22 -54 9 -67 -39 -43 -36 18 -67 66 -67 105 0 12
-7 29 -16 39 -15 17 -15 22 -2 56 9 21 21 68 28 106 7 37 14 67 17 67 2 0 18
-7 36 -16z m827 -12 c19 -8 20 -11 7 -11 -29 -1 -9 -20 21 -20 86 0 108 -3
143 -21 44 -23 43 -20 27 -55 -13 -28 -30 -30 -105 -15 -45 9 -110 15 -246 25
-68 5 -90 15 -58 26 28 11 37 35 24 68 l-9 26 85 -6 c47 -4 97 -12 111 -17z
m-2143 -17 c-1 -100 5 -205 12 -201 8 6 24 -34 16 -42 -2 -2 -19 2 -38 9 -32
11 -36 17 -47 70 -11 52 -8 169 6 190 6 10 51 -13 51 -26z m2585 -106 c15 10
23 7 44 -16 26 -28 106 -173 102 -185 -3 -8 -59 28 -124 78 -42 32 -118 67
-171 79 -18 3 -35 11 -38 16 -4 5 -15 9 -26 9 -17 0 -19 4 -13 23 15 46 10 57
-41 85 -27 14 -52 27 -54 29 -1 1 0 6 3 11 3 5 72 -24 153 -65 123 -63 150
-74 165 -64z m-1058 56 c27 -8 66 -15 86 -15 41 0 74 -25 52 -39 -10 -6 -9
-17 4 -46 8 -21 13 -50 11 -64 -3 -14 -1 -34 4 -43 5 -10 7 -18 3 -18 -3 0
-47 27 -97 60 -92 61 -105 79 -124 158 -6 26 -3 26 61 7z m-1408 -11 c20 8 44
-10 44 -33 0 -16 48 -140 70 -180 17 -34 2 -25 -70 39 -60 53 -70 67 -79 111
-16 71 -15 85 4 69 8 -7 22 -9 31 -6z m-288 -124 c7 0 56 -77 57 -90 0 -3 10
-19 22 -35 17 -23 22 -26 23 -12 0 20 11 22 28 5 17 -17 27 15 13 41 -22 41
-3 42 48 4 20 -16 41 -27 48 -25 6 1 21 -18 32 -43 11 -26 25 -44 30 -41 15 9
25 -14 12 -27 -6 -6 -11 -19 -11 -30 0 -34 -24 -12 -58 54 -18 35 -38 68 -43
74 -16 16 -10 -13 10 -46 11 -17 17 -37 15 -44 -3 -7 -1 -16 5 -20 16 -10 13
-25 -5 -25 -28 0 -221 179 -265 245 -67 104 -67 103 -16 58 25 -24 50 -43 55
-43z m2224 48 c33 1 37 -1 43 -28 4 -17 20 -43 36 -59 16 -16 29 -36 29 -45 0
-8 9 -20 20 -26 11 -6 20 -17 20 -25 0 -19 2 -19 -48 5 -24 12 -47 18 -52 15
-5 -3 -14 3 -19 14 -15 28 -14 36 4 21 27 -23 15 4 -20 45 -19 22 -34 35 -35
29 0 -6 7 -17 15 -24 21 -17 19 -30 -5 -30 -14 0 -25 12 -37 40 -10 22 -23 40
-30 40 -7 0 -13 9 -13 21 0 18 4 20 28 13 15 -4 44 -7 64 -6z m-912 -54 c22
-15 40 -32 40 -38 1 -16 40 -100 45 -95 4 5 -15 66 -27 84 -9 14 7 39 20 32 5
-4 12 -30 16 -59 4 -28 16 -64 27 -79 10 -15 19 -33 19 -41 0 -8 6 -20 13 -28
6 -7 -3 -3 -20 9 -18 12 -33 27 -33 32 0 5 -4 9 -10 9 -18 0 -11 -17 23 -53
17 -20 38 -44 45 -54 11 -16 12 -16 7 5 -4 12 -2 22 4 22 5 0 13 -10 17 -22 3
-13 13 -31 22 -40 44 -51 -81 22 -145 85 -24 23 -43 46 -43 52 0 6 -20 49 -44
94 -59 109 -52 135 24 85z m396 -24 c10 0 14 -14 14 -49 0 -27 5 -62 11 -78
21 -52 37 -123 29 -123 -5 0 -15 7 -24 15 -8 8 -19 15 -23 15 -5 0 -24 16 -43
35 -19 19 -38 35 -44 35 -6 0 10 -21 34 -46 l45 -46 -35 7 c-19 4 -46 17 -60
28 -14 12 -29 25 -35 30 -6 5 -5 11 3 16 10 6 10 14 2 35 -5 15 -10 36 -10 47
0 18 1 19 25 3 14 -9 26 -14 26 -10 1 3 2 12 3 18 2 18 37 23 47 7 4 -7 3 -19
-3 -26 -5 -7 -8 -20 -4 -28 3 -8 0 -15 -7 -15 -6 0 1 -12 15 -27 15 -15 31
-24 35 -20 4 4 -3 14 -15 23 -17 12 -20 19 -12 34 12 23 13 70 1 70 -4 0 -8
12 -8 28 0 15 -3 36 -7 47 -6 17 -5 17 10 -2 9 -13 23 -23 30 -23z m976 -52
c22 -45 33 -134 24 -183 -5 -25 -14 -39 -32 -45 -13 -5 -24 -14 -24 -19 0 -16
-62 -29 -90 -19 -14 5 -36 18 -49 28 -19 17 -21 23 -11 36 7 8 19 13 27 10 11
-5 12 5 8 47 -4 28 -10 64 -15 79 -5 15 -5 30 -1 32 4 3 7 30 6 60 -2 49 0 55
19 59 37 6 119 -44 138 -85z m-1512 15 l32 -27 17 23 18 23 27 -46 c31 -52 56
-117 61 -160 3 -16 11 -69 20 -119 8 -49 14 -92 11 -94 -9 -9 -127 90 -160
135 -45 62 -58 96 -57 152 0 32 -2 41 -9 30 -7 -10 -10 4 -10 48 0 34 4 62 9
62 5 0 24 -12 41 -27z m940 -52 c5 -20 10 -47 10 -60 0 -20 -4 -23 -27 -18
-70 14 -102 37 -128 87 l-25 50 32 1 c18 0 42 4 53 8 28 11 73 -25 85 -68z
m662 22 c18 -16 42 -35 53 -43 11 -8 38 -34 61 -57 l41 -43 2 -130 c2 -128 2
-130 -22 -141 -32 -15 -65 3 -143 75 -32 30 -62 56 -66 56 -18 0 -6 39 16 53
16 11 25 28 28 54 5 41 -6 157 -17 186 -10 25 9 21 47 -10z m431 -133 c17 -19
69 -72 115 -118 53 -52 90 -97 98 -120 6 -20 10 -39 8 -41 -7 -7 -138 86 -170
121 -42 45 -159 209 -185 260 l-21 41 62 -54 c35 -30 76 -70 93 -89z m-729
124 c15 -6 15 -8 -1 -19 -17 -12 -17 -14 -1 -32 9 -10 20 -37 24 -59 5 -35 3
-44 -16 -57 -27 -19 -72 -8 -109 26 -14 13 -34 27 -43 30 -9 3 -24 20 -33 38
-17 32 -17 32 7 25 12 -4 38 -11 56 -14 31 -7 51 -29 68 -74 7 -19 41 -30 50
-16 4 5 -10 26 -29 46 -19 21 -42 54 -51 75 l-15 37 39 0 c21 0 46 -3 54 -6z
m-1906 -20 c28 -9 -7 -186 -38 -192 -9 -1 -37 12 -64 29 -44 30 -47 33 -27 40
11 5 28 6 36 3 10 -4 15 0 15 12 1 18 1 18 12 -1 11 -19 12 -18 19 9 10 37 2
51 -17 31 -9 -8 -19 -15 -24 -15 -13 0 -22 34 -11 38 6 2 11 10 11 18 0 8 5
14 10 14 6 0 10 7 10 15 0 15 19 14 68 -1z m331 -13 c11 -7 10 -16 -9 -46 -15
-24 -26 -61 -29 -99 -5 -52 -9 -61 -24 -58 -22 4 -76 61 -77 80 0 8 -9 25 -20
39 -17 21 -17 27 -6 39 8 7 17 19 19 26 6 13 28 -8 64 -57 14 -20 14 -20 28
-1 8 11 15 35 15 53 0 33 12 41 39 24z m211 -57 c0 -17 59 -164 72 -178 12
-15 10 -26 -7 -26 -8 0 -15 4 -15 10 0 5 -7 7 -15 4 -19 -8 -20 -24 0 -24 7 0
19 -8 24 -17 6 -10 11 -12 11 -5 0 6 6 12 14 12 13 0 42 -108 31 -118 -2 -2
-44 32 -92 77 -49 44 -104 92 -123 106 -19 14 -35 30 -34 35 1 6 2 18 3 27 1
14 7 11 31 -12 39 -37 55 -23 64 56 3 33 8 65 12 70 7 13 24 1 24 -17z m2028
-159 c107 -101 218 -200 248 -221 30 -21 52 -39 50 -41 -2 -3 -28 6 -58 18
-79 34 -207 123 -258 179 -25 28 -63 70 -85 94 -98 106 -107 116 -88 109 14
-5 13 -1 -6 20 -17 19 -20 27 -10 27 8 0 101 -83 207 -185z m-1616 159 c66
-34 140 -108 172 -173 40 -79 37 -85 -35 -77 -34 3 -74 6 -88 6 -36 0 -48 10
-56 45 -6 25 -5 28 6 18 43 -41 46 15 5 95 -32 64 -47 102 -40 102 3 0 19 -7
36 -16z m352 -32 c21 -15 39 -31 41 -37 1 -5 11 -38 20 -73 10 -34 16 -65 12
-68 -7 -8 -47 14 -47 27 0 12 -51 58 -64 59 -5 0 -1 -8 8 -19 16 -18 15 -19
-31 -14 -52 5 -93 21 -93 36 0 6 17 7 40 3 52 -8 68 16 45 70 -8 20 -15 41
-15 46 0 14 40 0 84 -30z m189 23 c55 -11 125 -88 143 -161 9 -32 21 -65 26
-72 21 -25 -3 -25 -54 1 -50 25 -138 113 -138 137 0 6 -9 28 -20 50 -24 46
-25 64 -6 57 8 -3 30 -9 49 -12z m182 -62 l56 -28 17 23 18 23 31 -33 c22 -23
36 -53 48 -101 9 -38 15 -71 12 -74 -3 -3 -32 9 -63 26 -32 17 -68 31 -80 31
-17 0 -25 9 -35 38 -6 20 -24 56 -40 80 -16 23 -26 42 -24 42 3 0 30 -12 60
-27z m-270 -9 c47 -31 112 -130 135 -206 33 -110 34 -117 9 -111 -27 7 -48 51
-30 62 10 6 10 10 2 16 -7 3 -23 24 -36 45 -14 22 -40 55 -60 74 -38 38 -55
73 -55 112 0 28 3 29 35 8z m-573 -42 c18 -16 45 -32 59 -35 21 -5 29 -17 42
-64 23 -79 39 -171 33 -181 -7 -12 -86 -14 -86 -2 0 5 -11 10 -23 10 -31 0
-54 61 -38 102 10 27 5 95 -9 113 -10 13 -24 85 -16 85 3 0 20 -13 38 -28z
m1615 -29 c15 -21 40 -53 55 -70 23 -28 27 -41 26 -88 -1 -30 -6 -55 -11 -55
-14 0 2 -58 34 -129 17 -37 26 -68 21 -73 -5 -5 -63 -11 -130 -13 -101 -3
-122 -2 -134 12 -19 23 -33 100 -30 160 3 50 3 51 30 44 18 -5 35 -3 50 7 20
13 25 13 33 1 8 -12 12 -11 24 5 18 24 18 52 0 136 -25 111 -16 128 32 63z
m-2007 -23 c26 -21 21 -27 -10 -10 -14 7 -19 5 -23 -10 -6 -24 13 -41 44 -38
27 3 43 -24 54 -91 5 -31 4 -42 -4 -37 -6 4 -11 18 -11 32 0 25 -24 34 -34 12
-3 -7 -4 1 -1 17 2 17 2 24 -1 17 -5 -10 -9 -9 -20 5 -9 12 -7 -3 6 -42 21
-60 49 -104 36 -55 l-7 25 20 -24 c12 -13 21 -29 21 -37 0 -8 5 -14 10 -14 6
0 10 -9 10 -20 0 -11 -2 -20 -5 -20 -15 0 -132 90 -162 125 -45 51 -75 119
-67 151 7 29 8 29 46 7 30 -18 31 -18 45 5 19 27 21 27 53 2z m741 -24 c5 3
16 0 24 -6 12 -10 16 -9 21 4 10 27 35 20 28 -8 -5 -22 3 -48 38 -123 8 -17 7
-28 -6 -48 -9 -14 -17 -25 -19 -25 -13 0 -120 50 -144 68 -40 28 -42 42 -6 42
30 0 63 25 63 49 0 9 -9 30 -20 46 -11 17 -20 35 -20 40 1 6 8 -3 16 -18 8
-15 19 -25 25 -21z m897 -5 c15 -32 7 -39 -18 -16 -13 12 -20 14 -20 5 0 -7
-7 -10 -15 -6 -22 8 -19 -7 4 -21 17 -11 26 -11 66 -3 25 5 35 -2 32 -22 -3
-13 -12 -23 -27 -25 -13 -2 -29 -8 -36 -14 -18 -15 -124 -14 -170 1 l-38 13
22 17 c11 10 20 19 18 21 -2 2 -6 20 -10 39 l-6 35 93 0 c90 0 94 -1 105 -24z
m-1926 -71 c35 -34 36 -38 28 -80 -11 -56 -29 -105 -36 -97 -3 3 -22 38 -42
78 -31 61 -41 73 -64 75 -37 4 -35 -10 6 -49 19 -18 44 -52 56 -77 32 -65 39
-71 60 -60 23 12 31 2 32 -40 1 -17 7 -35 15 -41 7 -6 13 -18 13 -25 0 -18
-71 -18 -119 0 -43 15 -82 63 -62 75 8 6 9 11 3 15 -10 6 -44 101 -76 213
l-15 53 46 -25 c26 -13 50 -22 55 -19 4 3 8 21 8 41 l0 35 28 -17 c15 -10 43
-35 64 -55z m1172 55 c11 -8 30 -15 43 -15 17 0 28 -11 44 -42 12 -24 36 -55
53 -70 l31 -27 -30 0 c-42 0 -138 33 -146 50 -4 8 -14 38 -22 67 -16 56 -10
65 27 37z m-545 -105 c5 0 23 -30 40 -67 18 -38 39 -81 47 -96 9 -16 13 -31
11 -34 -10 -9 -34 12 -92 80 -31 37 -60 66 -62 63 -3 -3 13 -27 37 -53 45 -52
43 -61 -12 -39 -36 16 -63 61 -52 90 4 12 -15 93 -34 146 -3 8 20 -9 52 -37
32 -29 61 -53 65 -53z m951 82 c14 -9 26 -24 27 -32 1 -8 5 -27 9 -42 4 -18 2
-28 -5 -28 -15 0 -14 -33 1 -48 21 -21 -4 -13 -26 8 -43 42 -97 82 -102 77 -3
-3 12 -22 33 -41 l38 -37 -50 6 c-27 4 -55 8 -62 10 -12 4 -48 114 -40 122 3
2 22 -5 43 -16 21 -12 53 -21 71 -21 17 0 35 -4 38 -10 3 -5 1 -10 -4 -10 -17
0 -13 -17 6 -24 20 -8 36 14 22 30 -5 6 -7 19 -3 28 4 10 1 16 -9 16 -8 0 -17
7 -21 15 -7 20 3 19 34 -3z m112 -56 c27 -44 34 -47 123 -54 l90 -7 -1 -54
c-1 -37 -8 -62 -24 -83 -16 -22 -19 -32 -10 -43 17 -21 -5 -27 -24 -6 -9 10
-37 26 -62 36 -41 15 -49 24 -75 79 -16 33 -33 68 -37 76 -5 8 -14 30 -20 48
-10 31 -9 33 11 26 12 -4 25 -12 29 -18z m-1201 -98 c9 -4 19 -21 23 -39 3
-18 25 -62 48 -96 22 -35 39 -66 36 -68 -3 -3 -32 3 -66 13 -65 21 -126 58
-117 72 3 5 -3 40 -14 77 -11 37 -22 88 -26 112 l-6 43 53 -54 c29 -30 60 -57
69 -60z m1552 94 c20 -22 42 -114 34 -137 -6 -13 -15 -15 -54 -9 -27 3 -53 10
-59 15 -6 5 -14 6 -17 2 -4 -3 -7 12 -7 35 0 23 4 42 9 42 5 0 19 16 32 35 27
39 39 43 62 17z m535 -133 c7 -6 11 -14 7 -17 -3 -3 -11 0 -17 6 -22 22 -29
12 -13 -18 16 -30 42 -43 31 -15 -8 22 1 19 46 -17 54 -44 68 -75 68 -151 0
-84 -11 -94 -80 -74 -63 19 -158 75 -166 99 -3 10 2 28 10 40 20 29 21 88 2
88 -13 0 -36 73 -36 112 0 6 -7 20 -16 30 -14 14 -14 20 -4 33 11 13 22 7 84
-45 39 -33 77 -65 84 -71z m-1385 72 c20 -8 25 -18 31 -67 4 -32 15 -77 26
-102 24 -53 24 -53 5 -45 -20 7 -48 60 -40 73 4 6 -2 13 -12 17 -10 3 -26 13
-35 21 -26 22 -22 6 7 -32 33 -43 32 -48 -6 -32 -23 10 -36 25 -45 52 -18 52
-17 62 6 69 11 3 23 17 26 31 7 28 5 27 37 15z m-1097 -20 c52 -26 57 -32 83
-119 34 -114 13 -117 -87 -13 -49 51 -62 70 -57 86 4 11 9 30 12 43 3 12 6 22
7 22 1 0 20 -9 42 -19z m266 -122 c21 -13 37 -31 35 -39 -1 -8 8 -19 20 -25
16 -7 28 -26 38 -61 8 -29 15 -55 15 -58 0 -13 -51 -5 -68 12 -9 9 -28 22 -42
29 -14 6 -19 12 -12 12 7 1 10 6 7 11 -3 6 -16 8 -29 4 -40 -10 -74 12 -100
65 -30 58 -43 125 -27 135 6 4 8 19 5 34 -6 24 1 20 57 -34 35 -33 81 -71 101
-85z m692 111 c16 -6 26 -17 26 -30 0 -11 7 -37 16 -58 9 -20 16 -55 15 -77 0
-22 9 -57 20 -79 11 -21 18 -41 15 -44 -7 -6 -76 68 -76 82 0 5 -8 18 -17 28
-16 18 -16 18 0 12 23 -8 21 -1 -3 21 -18 17 -20 17 -14 2 4 -10 1 -17 -6 -17
-9 0 -7 -7 5 -20 15 -16 15 -22 5 -35 -18 -22 -29 -19 -41 12 -5 14 -16 31
-23 37 -14 11 -39 97 -31 105 3 2 11 -2 19 -8 8 -7 25 -11 38 -9 20 3 22 8 20
46 -4 46 -4 46 32 32z m-140 -50 c3 -8 8 -37 12 -64 l7 -49 -33 6 c-18 4 -48
7 -66 7 -29 0 -36 5 -54 40 -27 52 -26 62 4 48 34 -15 52 -5 59 32 l7 31 30
-18 c16 -9 32 -24 34 -33z m653 14 c34 -17 35 -18 28 -62 -12 -79 -21 -95 -52
-87 -15 3 -46 19 -69 35 -23 15 -52 31 -63 35 -15 4 -21 15 -21 35 0 16 -3 36
-7 46 -5 14 -2 16 20 10 15 -3 29 -1 33 5 9 15 84 5 131 -17z m1104 -41 c8 -7
58 -31 110 -54 148 -64 199 -90 193 -101 -3 -5 2 -19 13 -30 18 -21 18 -21 -5
-9 -13 7 -41 29 -63 48 -26 24 -39 30 -39 20 0 -15 44 -54 102 -90 27 -17 45
-19 41 -4 -5 12 4 8 21 -9 21 -20 20 -78 0 -109 -15 -22 -15 -25 -1 -25 9 0
19 5 22 10 12 20 25 9 85 -66 58 -73 127 -191 117 -201 -3 -2 -25 27 -51 64
-25 37 -52 75 -58 83 -18 21 -109 80 -124 80 -16 0 -44 39 -38 54 2 6 -19 29
-48 51 -116 89 -243 213 -254 247 -3 10 -13 18 -21 18 -18 0 -53 28 -53 41 0
11 30 0 51 -18z m-643 -13 c2 -5 21 -10 43 -10 34 0 39 -3 45 -27 12 -55 36
-109 65 -146 32 -40 55 -94 45 -104 -12 -12 -252 225 -248 244 2 8 -3 10 -13
7 -8 -3 -15 -7 -15 -9 0 -1 63 -65 139 -140 87 -85 138 -142 134 -151 -9 -23
-54 -16 -118 19 -55 29 -63 38 -98 107 -20 41 -46 87 -57 102 -22 30 -25 63
-10 104 9 24 14 26 48 21 20 -4 38 -11 40 -17z m-378 -5 c7 -8 21 -15 31 -15
10 0 21 -5 25 -11 8 -14 127 -69 148 -69 21 0 44 -104 27 -124 -28 -34 -107 8
-170 90 -18 24 -38 44 -43 44 -16 0 64 -91 114 -131 38 -30 44 -38 30 -44 -24
-9 -140 5 -150 19 -5 6 -13 32 -16 58 -4 26 -15 57 -25 70 -12 16 -16 29 -10
43 4 11 8 35 8 53 1 35 11 41 31 17z m-240 -61 c68 -38 113 -57 142 -59 l43
-3 -3 -54 c-3 -47 5 -85 33 -152 8 -19 7 -19 -22 2 -17 12 -39 22 -48 22 -9 0
-19 9 -22 20 -6 23 -23 27 -23 5 0 -27 -18 -16 -25 15 -4 17 -11 30 -16 30 -6
0 -7 -10 -4 -22 5 -17 4 -20 -4 -13 -6 6 -18 49 -27 95 -9 47 -21 90 -27 95
-6 7 -8 1 -4 -15 13 -59 19 -170 9 -170 -6 0 -43 15 -82 34 -39 19 -88 37
-109 41 -34 6 -41 11 -54 48 -23 62 -29 87 -22 87 8 0 55 -30 88 -57 32 -26
65 -30 73 -10 3 8 -7 33 -20 58 -14 24 -26 47 -26 52 0 21 60 1 150 -49z
m-695 -4 c9 0 29 -7 45 -15 26 -14 30 -13 38 2 6 10 16 14 26 10 12 -5 16 -20
16 -61 l0 -55 -62 28 c-104 47 -140 69 -159 98 -28 43 -23 46 31 18 27 -14 56
-25 65 -25z m1231 -61 c81 -173 145 -290 182 -328 42 -45 51 -61 32 -61 -5 0
-10 -7 -10 -15 0 -40 -105 -45 -176 -8 -35 18 -42 29 -65 94 -14 41 -30 84
-37 95 -9 18 -9 24 4 35 29 24 40 64 38 142 -1 80 9 96 32 46z m-1760 -5 c18
-13 22 -19 12 -25 -21 -13 17 -22 41 -10 27 15 62 13 85 -4 16 -12 17 -17 6
-30 -22 -27 -62 -41 -118 -43 -55 -2 -81 7 -116 40 -11 10 -38 26 -59 36 l-39
17 43 7 c24 4 49 15 54 23 12 19 52 14 91 -11z m366 -4 c13 0 42 -9 65 -20 43
-19 58 -15 47 14 -5 12 -2 15 10 10 9 -3 21 -24 27 -46 6 -23 16 -49 22 -59
17 -28 3 -33 -67 -21 -75 12 -138 53 -167 107 -25 46 -24 48 11 30 16 -8 39
-15 52 -15z m2283 -61 c28 -24 64 -55 80 -67 17 -13 22 -21 13 -18 -25 8 -22
-5 13 -53 39 -55 36 -85 -9 -89 -28 -3 -39 3 -78 47 -25 28 -51 51 -57 51 -6
0 9 -20 33 -45 l44 -45 -28 0 c-43 0 -66 17 -66 50 0 16 -5 41 -10 56 -6 15
-8 34 -5 43 4 11 20 1 63 -40 36 -34 44 -39 21 -14 -81 90 -89 100 -89 108 0
16 16 2 83 -69 43 -45 65 -77 62 -87 -4 -8 1 -17 11 -21 14 -5 15 -4 4 9 -9
11 -9 15 -1 15 7 0 -31 47 -83 105 -61 66 -96 112 -96 126 0 26 -8 31 95 -62z
m-399 -84 c5 -64 3 -73 -19 -100 -25 -30 -25 -30 -129 -29 -132 2 -175 10
-181 35 -5 18 -2 19 31 12 21 -4 55 -8 77 -8 38 0 40 2 43 33 l3 33 50 -37
c28 -20 52 -35 54 -32 2 2 -23 24 -55 47 -54 40 -60 47 -60 80 0 20 -3 46 -6
59 -6 21 -4 22 52 22 33 1 70 7 84 14 23 13 25 12 37 -23 8 -20 16 -67 19
-106z m-1264 42 c32 -2 45 -11 89 -60 28 -31 58 -57 67 -57 11 0 1 14 -28 40
-25 21 -39 39 -31 40 8 0 23 -8 34 -17 15 -13 21 -15 24 -5 9 23 33 13 34 -15
6 -129 2 -137 -58 -127 -30 4 -44 13 -52 31 -9 19 -16 23 -32 18 -18 -6 -20
-4 -15 13 7 21 -19 40 -27 19 -5 -13 -77 55 -96 92 -16 29 -5 44 28 36 14 -3
43 -7 63 -8z m1396 -12 c110 -29 175 -52 164 -59 -7 -4 -7 -17 -2 -37 16 -56
31 -182 22 -191 -14 -14 -109 34 -119 58 -3 9 -13 12 -23 9 -14 -4 -26 6 -48
37 -16 24 -39 51 -49 61 -16 14 -19 27 -15 66 2 30 0 51 -7 55 -17 11 -13 29
4 22 9 -3 41 -12 73 -21z m-1575 -55 c21 -16 26 -31 31 -87 3 -38 9 -88 12
-112 8 -55 -8 -52 -53 10 -18 24 -44 60 -59 79 -21 29 -25 42 -19 75 9 58 41
72 88 35z m461 12 c10 5 19 8 21 6 9 -10 64 -153 60 -156 -3 -3 -13 2 -23 11
-10 10 -23 17 -28 17 -5 0 -20 16 -33 35 -13 19 -30 35 -37 35 -9 0 4 -25 31
-62 40 -55 45 -67 40 -98 -4 -19 -10 -38 -13 -42 -9 -9 -92 64 -92 80 0 7 4
12 9 12 10 0 5 126 -5 142 -10 16 7 27 29 19 14 -6 30 -5 41 1z m271 -8 c17
-9 48 -22 70 -29 39 -12 40 -13 60 -91 12 -43 29 -93 38 -111 16 -31 22 -63
12 -63 -3 0 -33 26 -67 59 -91 84 -138 124 -138 116 0 -4 37 -42 83 -85 l82
-78 -48 8 c-26 4 -53 14 -60 22 -29 36 -166 128 -181 122 -12 -5 -21 5 -36 37
-36 81 -22 90 47 29 48 -42 95 -53 110 -25 7 12 24 0 78 -55 38 -39 74 -70 79
-70 6 0 -23 34 -64 75 -41 41 -79 75 -85 75 -10 0 -45 54 -45 71 0 14 32 11
65 -7z m793 -125 c24 -25 36 -77 22 -95 -8 -8 -8 -14 0 -19 17 -11 11 -61 -10
-80 -23 -21 -63 -22 -183 -5 -85 12 -89 13 -104 45 -9 19 -25 36 -36 39 -12 3
-17 10 -14 19 3 8 2 31 -3 51 -7 32 -6 36 12 36 10 0 17 -4 14 -9 -9 -14 60
-20 129 -10 l66 9 36 -35 c40 -39 59 -46 43 -15 -8 16 -8 20 4 20 10 0 13 6
10 15 -7 17 -44 21 -44 5 0 -17 -18 -11 -22 8 -4 19 19 41 44 42 10 0 26 -9
36 -21z m540 2 c38 -19 132 -112 132 -130 0 -5 12 -23 26 -40 l26 -31 -29 -11
c-33 -13 -134 -5 -166 13 -12 7 -27 11 -33 10 -10 -2 -24 72 -29 158 -2 26 11
50 27 50 5 0 26 -9 46 -19z m-120 -50 c31 -19 35 -172 5 -202 -14 -14 -59 9
-97 50 -17 17 -35 31 -40 31 -6 -1 9 -19 34 -40 52 -46 47 -47 -72 -21 -142
31 -166 48 -156 112 3 22 6 20 55 -24 43 -38 57 -45 75 -38 29 10 58 65 58
109 l0 32 63 0 c34 0 68 -4 75 -9z m-728 -113 c11 -12 20 -34 20 -49 0 -15 7
-29 15 -33 8 -3 15 -17 15 -31 0 -24 -3 -25 -42 -21 -55 5 -92 20 -109 44 -8
10 -22 21 -31 25 -10 3 -18 14 -18 24 0 15 -2 15 -9 4 -8 -12 -14 -13 -36 -3
-14 7 -35 12 -45 12 -12 0 -20 7 -20 16 0 14 8 16 53 9 28 -4 75 -7 102 -7 31
0 57 -6 68 -16 15 -14 17 -14 17 1 0 9 -5 19 -10 22 -6 4 -8 11 -5 16 9 13 12
12 35 -13z m171 -103 c53 -14 65 -14 111 0 65 19 79 19 72 0 -4 -8 -1 -15 5
-15 6 0 11 -5 11 -11 0 -6 -8 -8 -19 -4 -14 4 -20 -1 -25 -19 -4 -18 -11 -24
-24 -20 -12 4 -10 0 7 -15 13 -12 21 -24 18 -28 -5 -5 -73 -12 -139 -14 -9 0
-33 10 -55 24 -21 13 -51 27 -68 32 -25 7 -27 9 -10 13 26 6 35 22 28 49 -6
28 6 29 88 8z m362 -31 l33 -16 -1 -86 c-1 -75 -6 -97 -33 -157 -17 -38 -32
-66 -32 -61 0 4 -19 -7 -42 -26 -54 -44 -85 -61 -92 -49 -10 15 -14 131 -5
131 19 0 8 26 -27 61 l-37 37 72 36 c57 29 75 44 91 76 11 21 20 46 20 55 0
19 11 19 53 -1z m153 -29 c16 -13 16 -14 2 -9 -23 8 -23 7 7 -72 17 -44 25
-87 25 -127 l0 -61 -40 39 c-22 21 -42 36 -46 33 -7 -8 64 -75 87 -83 22 -8
30 -41 13 -56 -7 -6 -33 -9 -57 -8 -33 3 -43 1 -40 -8 8 -21 -12 -15 -37 12
-13 14 -32 25 -42 25 -22 0 -22 3 -3 40 9 17 21 30 28 30 15 0 37 96 37 163 0
50 17 97 35 97 6 0 20 -7 31 -15z m82 -112 c17 -34 36 -65 42 -68 7 -4 9 -19
5 -35 -4 -16 -1 -39 6 -52 19 -36 56 -78 63 -71 11 11 66 -50 89 -97 11 -25
23 -49 25 -53 2 -5 -5 -4 -16 2 -10 6 -22 7 -26 4 -3 -3 -6 0 -6 7 0 21 -31
50 -54 50 -20 0 -20 -1 5 -23 49 -42 52 -52 29 -89 -11 -18 -20 -43 -20 -55 0
-13 -4 -23 -8 -23 -11 0 -163 157 -190 197 l-23 32 28 7 c15 3 37 17 49 31
l21 25 40 -46 c36 -41 63 -58 63 -40 0 4 -20 28 -44 54 -32 34 -46 60 -54 97
-6 28 -23 72 -37 98 -14 27 -25 57 -25 67 0 11 -5 28 -11 39 -6 12 -7 28 -4
37 6 14 9 13 15 -8 4 -14 21 -53 38 -87z"/>
<path d="M4854 12783 c-12 -2 -36 -18 -55 -34 -34 -31 -25 -30 21 2 31 21 90
35 90 20 0 -5 -9 -13 -20 -16 -11 -3 -20 -12 -20 -18 0 -7 -15 -22 -33 -34
-18 -13 -48 -38 -66 -57 -41 -42 -38 -63 18 -123 44 -47 84 -59 156 -48 41 6
49 12 75 53 16 26 32 52 35 57 3 6 7 5 11 -2 8 -17 24 -17 24 0 0 25 -55 74
-90 82 -47 10 -129 10 -160 0 -23 -7 -24 -6 -9 9 9 9 31 19 49 21 40 5 49 13
30 25 -13 9 -13 10 0 10 13 0 13 1 0 10 -12 8 -12 10 3 16 10 3 31 4 47 0 41
-8 38 1 -6 19 -36 15 -58 16 -100 8z"/>
<path d="M3905 11978 c-3 -7 -16 -65 -29 -129 -13 -64 -28 -125 -34 -136 -8
-14 -8 -23 -1 -30 8 -8 5 -19 -7 -39 -14 -20 -15 -29 -6 -32 19 -6 15 -21 -18
-62 -34 -43 -37 -55 -14 -64 22 -8 34 1 34 27 0 23 65 107 82 107 6 0 -2 -16
-16 -35 -34 -44 -17 -46 20 -2 15 17 33 32 40 32 7 0 21 10 31 21 10 11 26 23
36 27 9 3 17 13 17 21 0 16 36 55 110 120 25 21 34 33 22 26 -36 -18 -39 -3
-7 30 17 18 35 28 45 25 10 -3 29 9 50 30 l33 34 -33 -4 c-42 -5 -140 -98
-140 -132 0 -13 -9 -27 -22 -34 -12 -6 -46 -38 -76 -71 -73 -78 -80 -66 -8 16
31 35 48 62 39 59 -10 -3 -36 -27 -58 -55 -55 -68 -118 -128 -127 -122 -5 3
12 29 37 57 43 50 58 76 33 61 -25 -16 47 68 85 98 22 18 35 34 28 36 -6 2 -8
9 -5 15 4 7 -14 -8 -40 -33 -55 -53 -100 -115 -92 -128 3 -5 -6 -20 -21 -33
-25 -23 -25 -23 -14 -2 16 31 14 40 -4 17 -19 -25 -19 -17 5 68 11 40 22 91
25 113 3 22 8 57 11 78 6 35 -2 51 -11 25z"/>
<path d="M5078 11760 c-9 -133 -16 -160 -53 -202 -31 -34 -34 -35 -39 -15 -3
12 -6 45 -6 74 0 28 -5 55 -11 59 -8 5 -9 -11 -4 -57 5 -35 9 -80 11 -99 2
-19 3 -37 3 -39 1 -3 6 0 13 7 22 22 28 12 28 -47 0 -33 5 -72 11 -88 7 -15
11 -44 11 -63 l-1 -35 13 40 c8 22 23 59 35 82 12 23 21 47 21 53 0 6 16 40
35 77 20 36 34 67 32 69 -2 2 -10 -7 -17 -20 -16 -31 -39 -41 -47 -20 -3 8 -3
69 -1 136 2 67 2 116 0 110 -8 -26 -21 -10 -24 31 -2 26 -6 7 -10 -53z m20
-132 c-3 -29 0 -75 7 -102 11 -42 10 -54 -6 -99 -19 -53 -44 -86 -55 -74 -3 3
-9 46 -13 94 -7 87 -7 88 21 121 18 22 28 44 28 66 0 30 6 46 18 46 3 0 2 -24
0 -52z"/>
<path d="M4358 11808 c-13 -18 -28 -42 -34 -52 -6 -11 -17 -22 -25 -24 -11 -4
-12 -2 -1 9 17 19 15 34 -3 19 -8 -7 -14 -19 -13 -26 2 -7 -59 -74 -134 -148
-86 -85 -136 -140 -132 -149 3 -8 -4 -29 -14 -48 -26 -45 -20 -109 10 -109 11
0 31 13 46 29 14 16 54 44 89 62 36 18 74 43 86 56 12 12 28 23 35 23 6 0 12
6 12 14 0 8 10 31 21 51 37 62 14 49 -25 -15 -34 -55 -76 -94 -76 -71 0 5 7
11 15 15 8 3 15 10 15 16 0 7 -25 -10 -55 -35 -30 -26 -55 -43 -55 -38 0 5 7
30 16 56 9 26 14 52 11 59 -2 7 -8 0 -12 -17 -22 -92 -82 -185 -119 -185 -25
0 -20 60 9 102 14 20 25 41 25 46 0 5 11 19 25 32 14 13 23 26 20 28 -7 7 26
42 39 42 6 0 33 25 59 55 27 30 54 55 60 55 7 0 23 16 37 35 14 19 34 35 45
35 11 0 37 21 58 45 44 52 38 60 -10 13 -43 -42 -51 -32 -12 15 17 20 26 37
20 37 -5 0 -20 -15 -33 -32z"/>
<path d="M6459 8072 c-58 -37 -166 -110 -240 -163 -74 -53 -144 -103 -156
-110 -29 -17 -30 -34 -2 -19 38 21 31 3 -8 -21 -21 -12 -39 -23 -40 -24 -7 -4
23 -65 32 -65 6 0 16 -14 23 -32 6 -17 14 -29 17 -26 3 3 0 17 -6 32 -16 34
-10 39 45 31 65 -10 245 -132 230 -156 -3 -5 -25 -17 -50 -28 -24 -11 -43 -26
-42 -33 2 -7 -4 -11 -12 -9 -71 18 -80 8 -13 -15 42 -15 53 -11 53 17 0 10 4
19 9 19 17 0 71 -83 77 -119 9 -57 14 -68 23 -52 5 7 12 11 17 9 5 -1 13 33
17 77 4 43 10 81 12 83 6 6 104 -28 155 -53 25 -13 76 -44 114 -69 37 -25 98
-60 134 -77 49 -23 88 -53 147 -113 96 -97 143 -131 255 -187 179 -89 206
-112 375 -313 22 -26 54 -74 72 -108 17 -33 44 -76 60 -96 37 -46 133 -242
133 -270 0 -11 5 -33 12 -49 6 -15 10 -36 9 -45 -1 -10 1 -18 6 -18 4 0 15
-10 23 -22 16 -25 17 -58 23 -528 3 -162 8 -303 12 -313 4 -9 3 -23 -3 -30 -5
-6 -12 -91 -15 -187 -6 -198 -14 -232 -86 -379 -52 -108 -83 -182 -77 -189 3
-2 12 9 21 25 l16 28 -4 -27 c-2 -16 0 -25 6 -21 12 8 67 128 67 148 0 9 12
44 26 78 54 127 87 316 79 454 -3 48 -7 122 -9 163 -4 57 -15 368 -18 480 0 8
0 69 1 135 2 126 -3 154 -38 222 -11 23 -21 47 -21 52 0 17 -121 263 -145 296
-12 17 -39 62 -60 100 -21 39 -52 86 -68 105 -15 19 -51 64 -78 99 -69 89
-153 153 -284 216 -62 30 -116 59 -120 65 -3 5 -30 25 -59 44 -29 18 -69 55
-88 82 -42 57 -76 83 -138 108 -24 10 -83 43 -130 74 -100 66 -138 85 -245
121 -64 22 -81 32 -83 49 -2 12 -10 22 -18 22 -8 0 -29 13 -47 29 -96 88 -179
130 -257 132 -43 1 -60 5 -60 15 0 8 4 14 9 14 15 0 85 69 78 77 -4 3 15 19
42 34 27 14 83 54 123 87 40 33 105 79 143 102 115 68 122 73 134 92 17 28 4
22 -110 -50z"/>
<path d="M6864 6933 c-7 -25 5 -152 27 -288 5 -33 12 -93 15 -133 7 -73 7 -73
-27 -108 -27 -28 -35 -31 -39 -19 -4 12 -28 -7 -90 -72 -47 -48 -107 -105
-134 -125 -54 -41 -45 -49 19 -18 22 11 51 19 64 20 29 0 94 47 88 64 -6 16
31 59 71 82 17 10 32 21 32 25 0 4 13 20 30 36 30 29 49 97 30 108 -6 3 -9 23
-8 44 0 21 -2 42 -5 48 -10 15 -47 270 -47 319 0 49 -16 59 -26 17z"/>
<path d="M5055 6674 c17 -13 41 -27 55 -31 46 -12 91 -45 136 -101 60 -74 81
-117 94 -193 16 -103 12 -105 -31 -20 -50 97 -102 161 -126 155 -13 -3 -26 8
-43 37 -27 45 -124 139 -143 139 -7 0 14 -23 46 -51 100 -89 237 -325 237
-412 0 -12 5 -29 11 -37 8 -11 9 -5 4 25 -10 67 -44 160 -81 220 -19 32 -32
60 -29 63 17 17 125 -138 141 -202 13 -51 29 -22 28 52 -3 136 -88 261 -231
337 -96 51 -111 55 -68 19z"/>
<path d="M3790 6610 c-90 -9 -72 -10 225 -16 l260 -4 65 -29 c45 -20 90 -31
145 -36 96 -8 179 -25 300 -60 50 -15 131 -37 180 -50 105 -26 146 -45 192
-90 25 -24 33 -41 33 -66 0 -41 -70 -172 -104 -194 -27 -18 -90 -13 -143 11
-17 8 -46 17 -65 20 -18 3 -51 13 -73 21 -22 8 -72 21 -112 29 -39 7 -122 30
-184 50 -100 32 -121 36 -179 30 -43 -4 -81 -1 -110 8 -25 8 -104 19 -175 25
-72 7 -151 18 -176 26 -68 21 -150 28 -179 16 -21 -9 -18 -10 20 -5 30 3 67
-1 110 -14 36 -11 103 -25 150 -31 47 -6 123 -16 170 -23 47 -6 132 -14 190
-18 79 -5 127 -14 197 -37 50 -18 119 -37 153 -43 34 -6 74 -16 88 -21 14 -5
60 -19 101 -30 42 -11 80 -24 86 -28 5 -5 33 -11 61 -15 46 -6 55 -4 83 20 35
29 111 177 111 215 0 31 -80 111 -133 133 -21 8 -70 22 -110 31 -114 24 -127
29 -140 55 -7 13 -23 30 -37 37 -63 32 -121 53 -147 53 -18 0 1 -11 57 -30 46
-17 94 -40 105 -51 l20 -21 -40 7 c-22 3 -59 13 -82 20 -23 8 -99 22 -170 30
-87 11 -146 25 -183 41 -49 23 -71 25 -215 29 -88 2 -187 5 -220 8 -33 2 -89
1 -125 -3z"/>
<path d="M3784 6123 c-30 -4 -31 -6 -42 -81 -7 -42 -12 -105 -12 -139 0 -59 6
-73 24 -56 4 4 26 13 48 20 39 11 50 9 182 -36 78 -27 152 -53 166 -59 37 -15
140 -32 192 -32 42 0 47 -3 61 -32 8 -18 18 -42 21 -53 3 -11 4 -3 1 17 -2 20
-11 48 -20 62 -14 22 -25 26 -63 26 -55 0 -159 18 -186 32 -11 6 -47 19 -80
28 -68 20 -108 34 -180 61 -45 18 -51 18 -97 3 -28 -9 -53 -14 -56 -10 -8 7
12 210 22 225 8 13 102 14 215 1 47 -5 114 -10 150 -11 37 -1 94 -12 133 -26
38 -12 77 -23 88 -23 10 0 37 -16 59 -36 45 -41 58 -83 42 -144 -8 -33 -7 -46
9 -77 11 -21 16 -46 13 -60 -4 -14 -2 -23 5 -23 15 0 14 28 -5 83 -13 38 -14
53 -4 82 15 45 25 38 40 -26 7 -27 14 -48 17 -45 11 11 -30 116 -68 174 -36
56 -84 96 -106 90 -4 -1 -37 7 -73 19 -54 18 -250 43 -310 41 -8 -1 -46 1 -85
4 -38 3 -84 3 -101 1z"/>
<path d="M5975 6106 c-72 -18 -141 -56 -208 -115 -32 -28 -77 -61 -100 -72
-75 -38 -164 -107 -225 -175 -64 -71 -102 -156 -116 -256 -10 -66 28 -172 89
-249 25 -32 55 -82 67 -111 12 -29 34 -69 49 -89 27 -35 27 -39 19 -101 -8
-53 -16 -71 -44 -101 -19 -20 -37 -50 -41 -66 -3 -17 -17 -46 -30 -65 -39 -58
-48 -78 -65 -153 -20 -83 -14 -142 18 -176 11 -12 46 -67 77 -122 31 -55 66
-110 77 -123 32 -33 119 -58 161 -45 25 7 54 6 123 -9 98 -20 190 -34 304 -48
42 -5 110 -23 155 -40 161 -65 205 -79 205 -70 0 5 -13 16 -29 24 -34 18 -46
43 -30 62 15 18 29 18 29 0 0 -8 5 -18 10 -21 7 -4 9 2 5 18 -5 20 3 37 39 81
25 31 46 64 46 72 0 12 -5 10 -18 -7 l-19 -22 -7 33 c-9 46 14 72 42 47 27
-25 32 -21 16 13 -14 28 -14 32 6 60 l21 30 -47 50 c-26 27 -42 50 -37 50 5 0
22 -14 39 -31 47 -50 62 -54 89 -25 20 21 25 23 41 12 11 -7 29 -16 41 -20 19
-6 25 -2 33 20 6 15 9 35 7 43 -3 11 -8 5 -16 -15 -9 -24 -17 -31 -31 -27 -35
9 -42 28 -25 68 20 50 20 51 -20 51 -19 0 -35 -4 -35 -8 0 -4 3 -8 8 -8 4 0
13 -4 21 -9 11 -7 8 -18 -14 -60 -16 -28 -32 -51 -37 -51 -4 0 -8 16 -8 36 0
19 -5 44 -10 54 -8 15 -5 29 15 61 35 54 27 73 -8 20 -31 -46 -33 -47 -58 -25
-22 19 -14 44 13 44 17 0 12 8 -23 40 -50 45 -69 51 -45 15 14 -21 14 -25 2
-25 -8 0 -18 5 -21 10 -3 6 -10 10 -16 10 -18 0 -9 -16 19 -32 22 -13 32 -14
40 -6 14 14 16 -1 3 -21 -5 -8 -16 -11 -30 -6 -24 7 -29 -10 -5 -19 13 -5 14
-9 4 -22 -12 -13 -17 -11 -42 12 -36 35 -37 19 0 -19 32 -35 27 -33 -51 12
-55 32 -57 34 -41 52 12 13 24 17 43 12 24 -6 25 -5 12 11 -12 15 -12 20 6 44
11 14 31 29 44 32 17 4 20 8 11 14 -7 4 -24 5 -37 2 -20 -5 -27 -1 -40 23 -20
39 -19 44 5 36 29 -9 16 19 -15 33 -20 9 -23 9 -18 -3 6 -16 -5 -19 -32 -9
-14 6 -13 9 6 30 16 17 29 22 48 18 24 -5 24 -4 6 7 -11 6 -29 19 -39 28 -18
15 -19 15 -13 -1 8 -22 -75 -86 -169 -130 l-64 -30 -35 22 c-19 12 -35 26 -35
31 0 5 -6 9 -12 9 -7 -1 4 -16 25 -34 l38 -34 -33 -4 c-45 -7 -56 -1 -79 43
-22 43 -22 43 45 54 32 5 43 2 64 -17 l25 -23 -12 23 c-18 35 -7 38 44 11 37
-20 46 -21 57 -10 11 12 10 13 -4 8 -24 -8 -57 18 -41 34 9 9 18 9 42 0 29
-13 71 -7 71 8 0 5 -11 6 -25 3 -27 -5 -59 14 -49 30 3 5 13 7 22 4 10 -2 35
-7 57 -11 53 -9 33 8 -28 23 -46 12 -49 11 -70 -13 -16 -17 -37 -26 -73 -31
-48 -6 -52 -5 -78 27 l-29 34 34 13 c19 8 46 11 66 7 25 -4 33 -2 33 8 0 18
24 29 46 20 15 -6 34 11 34 31 0 4 -15 5 -34 2 -20 -4 -37 -2 -41 4 -9 15 -25
12 -19 -4 7 -18 -25 -29 -42 -15 -8 6 -18 26 -23 43 l-9 31 -1 -28 c-1 -16 4
-37 9 -47 9 -17 5 -20 -32 -30 -24 -6 -56 -15 -72 -20 -45 -15 -47 -13 -44 32
2 33 8 44 22 46 10 2 22 -2 27 -10 5 -8 9 -9 9 -2 0 18 32 26 42 12 5 -9 8 -7
8 8 0 23 42 68 53 57 14 -13 6 23 -13 62 -11 22 -19 48 -20 57 0 9 -5 20 -11
23 -15 10 -149 12 -149 3 0 -16 -17 -7 -29 15 -11 21 -11 21 -6 -6 5 -23 1
-29 -21 -37 -15 -6 -28 -9 -29 -8 -1 2 -10 18 -19 36 -10 19 -20 32 -22 29 -3
-3 2 -19 11 -37 9 -18 15 -33 13 -35 -2 -1 -13 -8 -25 -14 -25 -13 -32 -37 -8
-27 8 3 21 9 29 12 9 3 16 -2 19 -13 4 -16 5 -16 6 -1 1 20 79 64 91 51 5 -4
10 -17 13 -28 3 -13 5 -9 6 13 l1 32 51 -2 c50 -2 51 -3 75 -49 22 -45 23 -47
5 -63 -18 -16 -19 -15 -29 21 l-11 38 5 -46 c4 -33 2 -48 -9 -58 -17 -14 -22
-9 -32 36 -3 18 -11 35 -16 38 -5 4 -5 -5 1 -20 17 -45 13 -65 -15 -65 -22 0
-25 4 -25 35 0 19 -5 35 -11 35 -7 0 -8 -14 -4 -40 4 -25 3 -40 -3 -40 -6 0
-17 -3 -26 -6 -13 -5 -16 2 -17 32 -2 34 -3 35 -6 9 -3 -16 -9 -34 -15 -40 -7
-7 -9 9 -5 50 l6 60 -12 -53 c-7 -29 -18 -57 -26 -61 -10 -6 -10 -10 -1 -16
11 -7 5 -62 -9 -77 -11 -12 -51 21 -51 43 0 34 -26 20 -40 -21 -13 -38 -32
-51 -45 -30 -3 5 4 28 15 51 12 22 19 43 16 46 -3 3 -14 -15 -25 -40 -14 -33
-25 -45 -35 -41 -9 3 -12 13 -9 22 4 12 3 14 -5 7 -12 -12 -92 -188 -92 -204
0 -6 5 -11 10 -11 6 0 10 7 10 15 0 8 11 38 24 67 13 29 27 63 31 76 4 13 12
21 18 19 13 -4 13 -16 3 -87 l-6 -45 13 48 c16 54 21 62 37 52 11 -7 8 -54 -7
-91 -3 -8 -1 -14 5 -14 5 0 12 18 15 41 6 47 11 54 30 46 11 -4 12 -16 4 -61
-10 -55 -11 -56 -44 -56 -31 0 -33 -3 -44 -45 -13 -51 -19 -50 -34 3 -6 19
-15 37 -22 39 -13 5 4 -61 30 -112 8 -16 25 -52 37 -80 13 -27 25 -44 27 -37
3 7 -1 20 -8 28 -15 18 -24 170 -11 178 5 3 18 2 30 -1 20 -5 22 -12 22 -84 0
-66 5 -89 26 -132 34 -68 68 -103 128 -134 45 -23 47 -26 30 -38 -11 -7 -39
-19 -64 -26 -56 -15 -73 -29 -38 -29 15 0 29 -4 33 -9 3 -5 19 -12 35 -16 17
-4 30 -11 30 -17 0 -10 -101 -6 -169 8 -22 4 -32 3 -28 -3 7 -12 69 -24 144
-29 58 -3 136 24 147 51 4 11 20 15 56 15 27 0 50 5 50 10 0 6 -14 10 -31 10
-27 0 -30 2 -19 15 16 19 41 19 86 0 30 -12 33 -17 25 -33 -5 -10 -37 -33 -70
-51 -34 -18 -61 -36 -61 -40 0 -5 17 -11 38 -13 55 -8 182 3 182 15 0 6 -28 8
-80 3 -44 -3 -80 -3 -80 1 0 16 66 47 103 50 34 3 38 1 32 -17 -8 -24 10 -27
23 -4 13 24 46 13 120 -41 36 -27 70 -60 79 -80 19 -39 12 -56 -14 -33 -25 21
-168 54 -293 68 -58 6 -132 16 -165 22 -33 6 -114 12 -180 13 -142 3 -170 13
-209 79 -34 58 -33 64 5 32 32 -27 54 -33 64 -16 3 6 -4 10 -15 10 -25 0 -90
60 -90 84 0 9 -5 16 -11 16 -6 0 -8 -7 -5 -15 18 -44 14 -44 -10 0 -14 28 -35
60 -46 72 -11 11 -22 39 -25 60 -5 41 23 189 37 198 5 3 14 22 20 43 24 75 63
152 77 152 8 0 13 6 10 13 -2 6 1 19 8 27 6 8 20 35 30 60 9 25 19 50 22 56 2
6 -9 26 -25 43 -16 18 -35 51 -42 74 -21 66 -39 97 -85 146 -64 70 -78 103
-80 199 -1 53 4 93 12 109 7 14 13 33 13 44 0 10 14 33 31 51 17 18 48 56 68
83 49 64 106 116 167 150 27 15 86 52 131 82 97 64 188 103 260 110 49 5 57 3
93 -25 52 -43 88 -58 101 -45 7 7 2 14 -18 20 -15 6 -50 29 -77 51 -43 35 -86
54 -120 51 -6 0 -33 -6 -61 -13z m52 -1319 c22 -13 5 -27 -34 -27 -28 0 -36 5
-41 22 -5 21 -6 21 -13 -7 -5 -16 -5 -32 -1 -35 4 -3 15 -22 24 -42 13 -27 14
-38 5 -41 -20 -6 12 -37 39 -37 31 0 39 -16 15 -29 -34 -19 -53 -12 -93 31
-39 42 -48 74 -26 96 17 17 -10 16 -53 -2 -19 -7 -46 -16 -61 -20 -25 -6 -28
-4 -28 19 0 31 16 65 31 65 5 0 14 -10 19 -22 8 -20 9 -18 9 13 1 36 2 37 44
42 23 2 60 11 82 20 40 15 40 15 54 -11 8 -15 20 -31 28 -35z m302 -61 c17
-20 -5 -32 -26 -14 -14 11 -15 10 -9 -9 9 -27 -17 -43 -71 -43 -35 -1 -36 -2
-20 -15 18 -13 17 -14 -12 -30 -17 -8 -31 -19 -31 -24 0 -11 71 -76 100 -91
16 -9 25 -9 33 -1 15 15 38 13 62 -5 18 -14 18 -17 4 -27 -8 -7 -18 -20 -22
-30 -14 -36 -35 -28 -110 43 -42 39 -92 83 -111 98 -19 15 -35 32 -36 38 0 17
38 24 68 13 21 -8 23 -8 13 5 -11 13 -3 20 46 45 32 16 67 36 78 45 25 19 30
19 44 2z m55 -60 c22 -42 8 -81 -26 -70 -17 5 -19 3 -13 -15 9 -30 -17 -37
-60 -16 -20 9 -43 14 -53 12 -12 -3 -8 -6 13 -12 37 -10 57 -24 49 -36 -10
-17 -42 -9 -73 17 -37 31 -39 50 -8 60 12 4 42 20 66 37 37 25 47 28 63 18 17
-10 18 -9 12 14 -9 36 8 31 30 -9z m-343 -276 c38 -22 70 -44 73 -49 3 -5 -6
-16 -20 -26 -23 -15 -29 -15 -64 -1 -22 9 -41 12 -44 7 -3 -4 13 -14 34 -21
22 -7 38 -15 36 -17 -8 -8 -136 19 -136 29 0 6 -6 5 -15 -2 -8 -7 -25 -10 -38
-7 -26 7 -117 66 -117 76 0 4 28 5 63 3 44 -3 68 -10 84 -25 13 -11 26 -17 30
-13 5 5 -2 15 -15 24 l-23 15 28 23 c15 13 34 23 42 24 8 0 45 -18 82 -40z"/>
<path d="M3776 5999 c-9 -34 -15 -62 -14 -63 2 -1 19 1 38 5 32 6 33 7 13 14
-13 4 -23 14 -23 22 0 8 4 12 9 9 5 -4 20 -2 33 3 23 10 23 10 1 10 -25 1 -40
18 -27 31 5 5 21 6 36 3 26 -5 28 -8 23 -47 l-5 -41 14 30 c15 29 15 30 16 5
0 -24 19 -66 20 -45 0 6 9 -1 19 -15 16 -20 22 -22 34 -12 12 10 16 10 20 0 3
-9 7 -8 12 5 4 9 5 24 1 32 -5 13 -9 13 -25 3 -27 -16 -35 -6 -23 29 7 20 15
27 31 26 11 -2 21 2 21 7 0 17 -29 23 -44 11 -12 -10 -15 -8 -19 11 l-4 23 -8
-22 c-9 -28 -21 -29 -28 -3 -4 15 -14 20 -40 20 -20 0 -42 2 -49 5 -11 4 -19
-11 -32 -56z"/>
<path d="M6060 5963 c0 -7 4 -14 10 -18 5 -3 19 -20 32 -37 20 -29 21 -31 2
-24 -10 5 -30 10 -43 11 -13 2 -35 16 -47 32 -13 15 -23 23 -24 16 0 -14 90
-106 97 -99 7 7 63 -22 88 -45 11 -10 25 -19 30 -20 21 -4 55 -22 55 -30 0
-10 -97 17 -125 35 -15 10 -26 12 -30 6 -3 -6 1 -13 10 -16 17 -7 50 -63 41
-71 -3 -3 -17 8 -31 23 -23 25 -25 26 -15 6 15 -31 9 -36 -29 -20 -19 8 -47
37 -74 78 -37 56 -48 66 -83 73 -57 11 -194 15 -188 5 3 -4 29 -8 59 -8 29 0
77 -5 105 -12 62 -14 82 -37 146 -167 64 -132 59 -167 -35 -211 -28 -13 -51
-30 -51 -38 0 -10 6 -12 18 -7 33 14 44 10 63 -25 16 -28 18 -46 13 -90 -4
-30 -3 -52 1 -48 4 4 10 33 12 65 3 45 -1 65 -15 88 l-19 30 34 30 c49 42 54
93 18 164 -14 29 -24 56 -21 59 3 3 17 0 31 -6 32 -15 161 -16 170 -2 3 6 -3
10 -13 10 -11 0 -22 7 -26 15 -4 11 2 15 20 15 14 0 27 -7 31 -17 6 -15 7 -15
13 3 4 11 1 24 -7 32 -21 21 -16 41 10 35 20 -4 20 -3 5 9 -9 7 -25 18 -35 25
-14 9 -10 9 18 1 27 -8 41 -20 53 -46 9 -19 19 -32 22 -29 3 3 1 15 -6 26 -9
17 -8 21 5 21 23 0 18 17 -8 24 -12 3 -30 19 -41 36 -10 17 -20 29 -23 26 -3
-3 0 -12 7 -21 7 -9 10 -18 7 -21 -11 -12 -73 27 -91 57 -10 17 -20 28 -23 25
-3 -3 -1 -12 5 -19 7 -8 9 -17 5 -21 -4 -4 3 -16 17 -27 l25 -20 -25 7 c-27 7
-90 50 -90 62 -1 13 -60 77 -60 65z"/>
<path d="M5760 5829 c-70 -12 -96 -34 -27 -25 26 4 47 3 47 -1 0 -18 -25 -33
-55 -33 -17 0 -48 -9 -70 -20 -48 -25 -60 -16 -20 16 17 13 26 24 21 24 -6 0
-38 -29 -73 -65 -65 -68 -62 -89 6 -37 34 27 71 46 71 37 0 -2 -10 -20 -21
-40 -22 -38 -70 -66 -77 -46 -5 15 -22 3 -22 -15 0 -10 7 -13 28 -8 l27 5 -24
-20 c-21 -19 -41 -26 -64 -22 -5 1 -17 -9 -27 -21 -10 -13 -21 -20 -25 -16
-10 9 2 42 28 74 12 15 23 37 24 48 3 19 1 19 -17 -4 -24 -31 -60 -105 -60
-124 0 -8 -4 -18 -10 -21 -14 -8 -13 -172 1 -180 16 -11 23 3 9 19 -10 13 -8
20 8 40 22 29 32 24 32 -13 0 -35 11 -71 20 -71 5 0 4 15 -1 32 -16 56 -11
106 10 118 11 5 22 10 24 10 3 0 4 -28 2 -62 -1 -35 -1 -50 2 -33 5 33 21 57
33 50 5 -3 6 -15 4 -28 -2 -12 1 -7 8 11 11 33 64 80 76 67 4 -3 -4 -15 -18
-25 -24 -19 -24 -20 -4 -20 25 0 49 24 39 39 -3 6 3 16 15 23 24 15 26 28 5
28 -19 0 -19 -1 4 52 16 39 64 78 78 64 8 -8 -28 -55 -48 -61 -10 -4 -19 -13
-19 -22 0 -9 6 -13 15 -9 12 4 14 0 9 -18 -4 -17 0 -27 12 -34 16 -9 15 -14
-12 -77 -27 -62 -47 -86 -60 -72 -3 3 8 35 25 72 17 36 26 65 20 63 -13 -4
-59 -113 -59 -138 0 -16 -18 -40 -31 -40 -4 0 -10 8 -12 18 -4 16 -5 16 -6 0
0 -10 -8 -18 -16 -18 -9 0 -19 -8 -22 -17 -4 -10 -17 -26 -30 -36 -13 -10 -23
-26 -23 -34 0 -14 2 -14 18 0 25 23 29 22 36 -13 3 -19 12 -30 22 -30 12 0 14
4 7 13 -6 6 -13 24 -17 39 -5 21 -1 30 16 42 12 9 26 16 30 16 13 0 9 -155 -4
-168 -9 -9 -9 -12 0 -12 7 0 17 -12 23 -26 5 -15 12 -24 15 -22 2 3 -1 17 -7
31 -9 21 -9 30 1 42 20 24 27 18 33 -31 2 -25 10 -51 16 -57 10 -9 10 -5 2 16
-13 32 -14 97 -3 113 10 16 70 45 101 49 14 2 26 4 26 5 0 1 14 3 32 5 24 2
34 -2 38 -15 3 -10 13 -24 22 -32 15 -12 15 -11 5 9 -7 12 -12 29 -12 37 0 26
25 18 38 -11 l12 -28 -5 28 c-4 19 -1 27 9 27 8 0 16 -7 18 -15 2 -13 5 -13
14 2 7 13 7 25 -3 43 -9 18 -13 20 -13 8 0 -19 -11 -22 -47 -12 -17 5 -23 14
-23 35 0 36 22 46 58 28 15 -7 30 -15 35 -17 4 -2 7 3 7 11 0 14 -60 47 -85
47 -7 0 -16 6 -18 13 -4 10 -6 10 -6 0 -1 -7 -7 -13 -15 -13 -25 0 -40 -31
-37 -76 2 -34 -1 -44 -13 -44 -34 0 -133 -45 -159 -73 -15 -16 -30 -27 -34
-23 -3 3 -2 36 3 73 7 50 13 68 24 68 8 0 15 -8 15 -17 0 -9 4 -20 8 -24 4 -4
7 2 7 14 0 21 4 22 60 18 33 -3 58 -1 55 4 -3 5 4 32 15 61 27 67 19 75 -8 9
-11 -27 -25 -50 -31 -50 -20 0 -23 23 -7 65 15 39 21 44 56 50 22 4 48 4 60 0
23 -7 28 12 5 21 -8 4 -15 14 -15 23 0 13 -2 13 -9 2 -5 -7 -21 -14 -37 -15
-16 -2 -39 -8 -51 -14 -12 -7 -29 -12 -38 -12 -14 0 -14 3 0 31 9 16 26 34 37
38 14 5 17 10 10 15 -19 12 16 56 45 56 21 0 23 -3 18 -22 -4 -13 -13 -28 -21
-34 -12 -9 -6 -14 31 -26 41 -14 45 -14 43 1 -2 10 3 15 15 13 19 -3 23 14 5
22 -10 3 -8 9 5 19 9 8 17 19 17 24 0 5 9 18 20 28 11 10 20 23 20 29 -1 6
-14 -5 -30 -24 -22 -24 -30 -29 -30 -17 0 9 -7 17 -16 17 -26 0 -9 25 22 31
16 4 21 7 12 8 -20 1 -24 17 -7 23 7 2 8 17 3 43 -4 22 -9 34 -11 28 -8 -21
-73 -13 -73 9 0 6 7 8 14 5 10 -4 13 -1 9 9 -3 8 0 21 7 29 9 11 9 15 1 15 -6
0 -14 -7 -17 -15 -4 -8 -12 -15 -20 -15 -8 0 -11 -6 -8 -15 5 -11 -2 -15 -26
-15 -25 0 -41 -10 -78 -50 -30 -31 -63 -55 -91 -65 -45 -15 -70 -11 -38 6 9 6
17 17 17 25 0 9 11 30 25 48 14 18 22 36 18 39 -3 4 4 7 16 7 23 0 22 -9 -7
-43 -17 -20 -8 -37 10 -19 7 7 21 13 33 13 16 1 17 2 3 6 -24 6 -23 23 2 23
13 0 18 5 14 15 -5 11 1 15 20 15 16 0 24 4 20 13 -2 7 1 21 9 30 10 15 17 16
40 8 21 -8 27 -8 27 3 0 14 -22 27 -43 25 -7 -1 -37 -5 -67 -10z"/>
<path d="M6319 5447 c6 -14 5 -29 0 -38 -8 -11 -13 -10 -28 9 -23 27 -31 28
-24 3 8 -30 -17 -37 -39 -10 l-20 24 6 -27 c5 -21 2 -28 -14 -33 -11 -3 -20
-10 -20 -15 0 -5 -7 -7 -15 -3 -10 3 -15 1 -13 -8 2 -7 -5 -15 -14 -17 -11 -2
-18 2 -18 12 0 8 -5 18 -10 21 -7 4 -8 -3 -4 -20 4 -18 2 -30 -7 -37 -10 -7
-11 -11 -2 -14 8 -4 10 -16 6 -35 -3 -17 -1 -29 5 -29 6 0 12 17 14 37 2 28 8
39 22 41 17 4 18 -1 12 -45 -5 -33 -3 -43 3 -32 12 19 96 53 110 45 5 -4 12 3
16 14 4 11 15 20 26 20 25 0 35 25 21 55 -10 21 -8 26 8 35 24 13 25 24 3 50
-23 27 -35 25 -24 -3z"/>
<path d="M6626 5410 c-14 -17 -29 -37 -33 -45 -5 -7 -21 -17 -38 -21 l-30 -7
38 46 c21 26 34 47 29 47 -11 0 -92 -93 -92 -106 0 -5 -31 -24 -68 -42 -52
-25 -80 -32 -125 -32 -65 0 -107 -15 -154 -54 -58 -49 -38 -60 23 -14 51 38
62 42 132 48 65 5 92 14 167 52 50 25 111 51 138 58 26 7 50 17 53 21 10 16
73 10 92 -9 10 -10 25 -19 33 -19 14 0 86 -48 223 -151 71 -54 92 -63 82 -37
-12 32 14 11 134 -112 132 -135 144 -154 190 -300 23 -72 35 -87 46 -58 5 12
9 13 20 4 8 -7 17 -9 21 -5 9 9 -11 27 -33 30 -14 2 -22 18 -33 62 -7 32 -17
67 -22 76 -18 36 -11 47 26 41 20 -3 35 -1 35 4 0 6 -22 13 -50 17 -27 4 -50
10 -50 15 0 4 -27 38 -60 74 -60 66 -65 86 -15 67 33 -13 55 -13 55 -1 0 14
-36 23 -83 23 -42 -1 -91 24 -81 40 4 6 31 8 65 5 33 -3 59 -2 59 3 0 12 -91
19 -117 9 -19 -7 -31 -4 -54 13 -16 12 -42 22 -57 23 -42 0 -37 20 5 23 21 2
43 8 48 14 7 7 -9 9 -52 5 -43 -3 -65 -1 -72 7 -18 22 30 39 93 34 56 -5 75 4
34 16 -41 11 -83 6 -120 -12 -35 -18 -36 -18 -81 5 -25 12 -49 27 -52 33 -4 6
15 20 44 32 28 11 51 24 51 29 0 9 -89 -26 -104 -41 -9 -9 -66 17 -66 30 0 17
68 40 120 40 32 0 61 4 64 9 3 5 -22 9 -57 9 -47 0 -73 -6 -107 -24 -43 -23
-48 -24 -75 -10 l-30 16 30 0 c29 0 102 36 93 46 -3 2 -20 -4 -39 -13 -18 -9
-49 -16 -67 -15 -21 2 -31 -1 -27 -8 4 -6 -4 -10 -20 -10 -14 0 -37 -7 -50
-16 -39 -26 -50 -12 -20 24 15 18 25 35 22 38 -2 3 -16 -9 -31 -26z"/>
<path d="M6693 5283 c-27 -5 -31 -23 -5 -23 9 0 30 -9 45 -19 l28 -18 -26 -5
c-18 -4 -35 2 -55 18 -15 13 -34 24 -42 24 -8 0 -20 6 -26 12 -9 9 -15 10 -20
2 -11 -16 -41 -24 -47 -14 -9 15 -25 12 -25 -3 0 -8 18 -21 40 -30 36 -14 56
-8 29 9 -7 4 -7 10 -1 16 16 16 158 -74 146 -93 -10 -17 -45 -9 -69 16 -15 17
-24 22 -27 13 -3 -9 -19 -7 -63 10 -32 12 -60 21 -62 18 -6 -6 103 -56 123
-56 10 0 25 -6 33 -14 9 -8 28 -18 44 -21 21 -6 27 -4 27 9 0 18 16 21 26 5 9
-15 -14 -29 -48 -29 -15 0 -30 -5 -34 -11 -4 -7 0 -9 12 -6 11 3 35 9 56 12
31 6 38 4 49 -17 12 -23 28 -38 42 -38 16 0 4 20 -53 85 -32 38 -58 71 -56 73
2 2 19 -3 38 -11 42 -18 122 -111 114 -132 -6 -16 10 -25 64 -39 19 -5 18 -2
-7 11 -34 17 -49 61 -17 49 9 -3 18 -6 20 -6 3 0 2 -5 -1 -10 -4 -6 9 -17 28
-25 23 -10 38 -25 45 -45 13 -37 25 -40 16 -3 -6 22 -4 25 10 20 9 -4 16 -2
16 3 0 5 -9 10 -20 12 -12 2 -21 8 -21 13 0 6 -8 19 -18 30 -30 33 -44 66 -33
77 12 12 87 -35 97 -60 5 -14 4 -14 -13 1 -34 31 -32 18 3 -29 19 -25 35 -49
35 -54 0 -5 3 -16 7 -26 5 -12 3 -15 -6 -9 -10 6 -11 3 -2 -14 7 -11 16 -21
21 -21 6 0 22 -25 35 -57 28 -62 45 -69 19 -8 l-16 38 27 -17 c26 -17 26 -17
16 3 -6 11 -20 22 -30 26 -19 6 -87 133 -77 143 20 19 -91 121 -115 107 -14
-9 -39 14 -39 36 0 11 -4 19 -9 19 -5 0 -7 -9 -4 -20 6 -23 0 -25 -28 -10 -33
18 -21 -2 31 -52 58 -56 64 -73 16 -53 -18 8 -36 12 -38 10 -3 -3 -28 24 -58
60 -29 36 -61 70 -72 76 -11 6 -17 13 -14 16 3 3 17 -2 30 -11 29 -18 40 -21
31 -6 -7 12 -81 51 -92 49 -4 -1 -18 -4 -30 -6z"/>
<path d="M3329 5240 c-13 -10 -21 -19 -17 -20 4 0 -25 -66 -63 -147 -79 -165
-76 -145 -35 -313 47 -191 56 -235 56 -261 0 -53 44 -83 96 -65 20 6 22 2 28
-59 4 -36 4 -70 1 -76 -9 -14 6 -169 16 -163 5 3 9 14 9 25 0 22 15 24 50 4
38 -22 87 -19 100 5 6 11 10 53 9 93 -3 119 -110 417 -150 417 -16 0 -9 49 12
87 12 21 54 73 95 115 40 42 85 94 99 115 14 21 46 67 70 102 42 60 51 82 26
67 -6 -4 -45 -50 -87 -102 -43 -53 -106 -127 -140 -165 -35 -38 -77 -95 -94
-128 -29 -59 -40 -131 -20 -131 6 0 10 -27 10 -62 0 -50 -5 -67 -26 -95 -31
-40 -64 -45 -64 -8 0 14 3 25 8 25 8 0 32 113 32 150 0 11 -5 29 -12 39 -8 14
-9 31 -2 58 9 38 9 38 -51 87 -33 28 -63 55 -67 60 -14 20 -8 51 17 88 14 20
25 42 25 48 0 6 12 30 28 53 42 64 65 119 52 127 -6 4 -1 12 14 19 33 18 70
-1 114 -58 l34 -45 -4 -98 c-2 -83 -1 -98 12 -96 20 4 40 100 32 147 -4 20
-22 61 -40 93 -25 43 -42 60 -73 72 -52 21 -72 20 -100 -4z m123 -617 c26 -29
97 -271 104 -353 5 -62 4 -78 -9 -89 -21 -17 -64 -7 -100 22 -23 19 -27 27
-21 54 8 40 20 35 28 -12 10 -51 23 -43 33 23 11 62 3 175 -10 155 -18 -29
-26 -9 -24 62 1 46 -2 79 -9 83 -13 9 -27 72 -15 72 4 0 15 -8 23 -17z"/>
<path d="M4276 5242 c5 -5 29 -14 54 -21 34 -10 65 -33 130 -97 62 -60 109
-95 165 -124 94 -49 113 -64 166 -126 61 -73 93 -160 91 -249 -1 -31 -30 -105
-42 -105 -4 0 -10 18 -14 40 -7 45 -54 150 -67 150 -5 0 -20 18 -35 39 -24 38
-51 57 -62 46 -3 -2 7 -14 22 -26 15 -12 46 -60 69 -108 34 -72 41 -98 45
-164 3 -58 0 -86 -12 -112 -34 -71 -124 -134 -193 -135 -30 0 -168 45 -186 60
-4 4 1 30 13 59 11 28 20 71 20 94 0 23 4 49 10 57 20 32 20 -18 0 -104 -22
-97 -24 -107 -11 -86 6 8 13 35 16 60 7 53 29 98 39 82 6 -10 -1 -47 -21 -116
-3 -11 -1 -16 5 -12 5 3 13 22 16 41 11 56 28 42 24 -20 -3 -60 0 -66 20 -35
16 25 32 17 32 -16 0 -13 5 -24 10 -24 6 0 8 11 4 25 -3 14 0 39 7 57 11 28
14 29 21 12 6 -13 7 -6 4 21 l-4 40 13 -30 c8 -16 17 -50 21 -74 11 -72 29
-21 29 84 0 83 -3 96 -37 167 -34 71 -75 124 -86 113 -3 -3 5 -16 18 -30 20
-21 21 -28 11 -53 -9 -22 -9 -35 4 -65 8 -20 15 -49 15 -64 -1 -25 -4 -22 -29
25 -15 30 -31 53 -37 53 -11 -1 -11 -4 -1 79 5 38 4 84 -2 110 -13 58 -5 64
16 12 8 -23 20 -39 24 -36 5 3 4 13 -1 22 -5 9 -19 37 -30 60 l-21 44 31 -19
c37 -21 70 -63 70 -90 1 -25 43 -91 55 -86 15 5 53 -49 71 -99 16 -47 19 -118
4 -118 -5 0 -10 11 -10 25 0 38 -23 85 -66 136 -21 26 -47 60 -56 78 -9 17
-21 31 -27 31 -9 0 45 -98 72 -129 29 -33 41 -68 53 -151 10 -82 11 -83 19
-44 6 34 11 41 26 37 17 -5 19 1 19 50 0 64 -20 127 -55 173 -14 18 -25 36
-25 40 0 13 -42 75 -47 70 -3 -3 2 -17 11 -30 18 -28 21 -46 7 -46 -5 0 -19
25 -31 55 -22 55 -106 145 -135 145 -23 0 -42 43 -37 84 3 27 1 37 -7 32 -6
-4 -11 -18 -11 -31 0 -32 -20 -75 -35 -75 -28 0 -37 27 -20 60 9 17 14 41 12
53 -2 16 -7 9 -16 -25 -8 -29 -19 -48 -28 -48 -25 0 -26 29 -3 83 12 29 24 58
27 65 3 6 1 12 -4 12 -5 0 -17 -22 -27 -49 -25 -70 -37 -83 -59 -67 -17 13
-17 16 3 66 11 29 19 57 17 63 -2 6 -14 -15 -26 -46 -24 -59 -30 -64 -48 -46
-8 8 -7 20 3 45 8 18 14 41 13 51 0 10 -8 -2 -18 -27 -15 -35 -23 -44 -39 -42
-11 2 -23 -2 -27 -8 -3 -6 3 -10 14 -10 25 0 25 -1 6 -47 -12 -28 -18 -33 -29
-24 -10 9 -16 8 -26 -4 -10 -12 -9 -16 4 -21 9 -3 16 -11 16 -16 0 -7 -5 -6
-13 1 -18 15 -29 3 -17 -19 7 -13 6 -20 -5 -24 -8 -3 -15 -12 -15 -21 0 -8 -4
-15 -10 -15 -5 0 -10 -9 -10 -20 0 -11 -4 -20 -10 -20 -13 0 -13 27 0 35 6 4
8 14 6 23 -3 10 1 30 9 46 15 27 12 53 -3 30 -4 -6 -18 -15 -32 -19 -25 -8
-17 4 110 142 17 18 30 39 30 47 0 8 12 38 26 66 14 28 23 54 19 58 -8 9 -50
-43 -80 -99 -28 -54 -142 -199 -156 -199 -5 0 -27 -16 -48 -36 -51 -46 -71
-111 -70 -231 0 -110 14 -153 55 -173 17 -8 29 -21 27 -27 -3 -7 0 -13 5 -13
6 0 12 5 14 10 4 13 58 -12 82 -38 15 -17 15 -20 1 -32 -27 -22 -16 -28 26
-13 36 12 48 12 98 -3 31 -8 80 -29 108 -46 121 -68 270 -108 350 -93 75 14
202 180 219 288 11 63 24 52 25 -20 1 -67 1 -68 15 -36 24 55 16 270 -12 329
-16 33 -91 114 -106 114 -5 0 -8 6 -8 13 0 19 -50 62 -90 77 -84 32 -140 67
-207 131 -77 73 -155 119 -200 119 -15 0 -23 -4 -17 -8z"/>
<path d="M6410 5216 c0 -9 -11 -18 -25 -22 -14 -3 -22 -10 -19 -15 3 -5 -2 -9
-11 -9 -9 0 -13 5 -10 10 3 6 1 10 -4 10 -6 0 -11 -4 -11 -10 0 -5 -12 -10
-26 -10 -21 0 -24 -4 -19 -19 5 -16 0 -20 -27 -23 -34 -4 -26 -11 24 -22 18
-4 30 -15 34 -31 3 -13 12 -29 20 -36 8 -6 14 -15 14 -20 0 -20 -41 -7 -99 32
-34 23 -65 39 -68 35 -8 -7 -12 -4 64 -54 65 -44 82 -49 100 -31 8 8 17 7 34
-5 26 -18 74 -21 84 -6 4 6 -9 10 -30 10 -29 0 -45 8 -71 34 -19 19 -34 41
-34 49 0 9 -9 18 -20 22 -16 5 -18 9 -7 26 18 28 53 23 112 -15 69 -46 80 -60
60 -76 -12 -10 -20 -8 -44 12 -17 12 -28 28 -27 34 3 6 -7 9 -24 6 -19 -3 -27
-9 -23 -17 2 -8 10 -12 17 -9 7 3 27 -7 45 -22 28 -23 35 -25 59 -15 15 6 41
14 57 17 32 5 53 20 43 29 -3 3 -17 0 -31 -6 -28 -13 -22 -16 -116 54 -55 40
-58 49 -25 64 22 10 30 9 55 -9 37 -28 48 -17 15 15 -33 33 -66 44 -66 23z"/>
<path d="M3390 5155 c-8 -9 -20 -13 -32 -9 -17 5 -19 2 -13 -15 5 -17 3 -20
-10 -15 -11 5 -16 2 -14 -7 3 -22 -19 -69 -36 -75 -8 -3 -13 -9 -11 -13 2 -3
-5 -24 -15 -46 -25 -52 -17 -87 29 -125 41 -34 52 -37 52 -15 0 8 7 15 15 15
8 0 15 7 15 15 0 24 29 75 43 75 6 0 12 11 12 25 0 16 -5 23 -12 20 -19 -7
-16 30 3 46 14 11 18 11 29 -4 13 -18 31 -24 20 -8 -3 5 -1 12 4 16 12 7 -3
52 -25 77 -9 9 -17 24 -18 34 -4 24 -20 28 -36 9z"/>
<path d="M6944 4959 c10 -33 34 -220 31 -239 -2 -8 -6 -44 -10 -80 -16 -140
-114 -380 -155 -380 -29 0 -32 16 -9 54 12 21 16 36 10 36 -6 0 -17 -12 -23
-26 -9 -19 -18 -24 -35 -21 -25 5 -32 -10 -9 -19 17 -7 14 -21 -21 -87 -14
-27 -23 -51 -20 -54 6 -5 28 27 48 72 12 26 19 30 49 27 34 -3 37 -1 74 65 21
37 47 93 58 123 10 30 27 75 36 100 21 58 24 345 4 402 -15 43 -40 67 -28 27z"/>
<path d="M3177 4493 c5 -160 4 -197 -9 -225 -9 -18 -19 -49 -23 -68 -4 -19
-14 -44 -21 -55 -13 -21 -54 -176 -54 -207 0 -10 12 -32 28 -48 29 -34 66 -41
115 -21 38 15 34 25 -9 18 -58 -10 -88 1 -104 36 -12 27 -11 40 3 96 10 35 26
83 37 105 10 23 21 53 25 69 3 15 12 27 19 27 8 0 15 14 18 35 7 60 -10 392
-20 412 -7 12 -9 -41 -5 -174z"/>
<path d="M7724 4313 c-10 -15 -23 -35 -29 -44 -5 -8 -24 -38 -42 -65 -18 -27
-56 -87 -85 -133 -95 -150 -254 -354 -269 -345 -5 3 -9 0 -9 -6 0 -7 -7 -9
-16 -6 -14 5 -16 1 -11 -23 5 -21 0 -36 -20 -60 -14 -17 -30 -31 -34 -31 -5 0
-9 18 -9 41 0 24 -4 38 -10 34 -13 -8 -13 -72 0 -80 22 -13 -61 -114 -137
-166 -51 -35 -55 -36 -43 -3 12 31 13 104 1 104 -4 0 -8 -12 -8 -27 0 -56 -11
-113 -24 -129 -13 -16 -98 -58 -105 -52 -1 2 2 23 6 48 5 25 5 49 0 54 -5 4
-11 -17 -15 -48 -4 -32 -15 -64 -24 -73 -15 -16 -16 -13 -19 30 -4 62 -22 61
-22 -2 0 -31 -5 -53 -15 -61 -13 -11 -15 -6 -15 39 0 31 -4 51 -11 51 -6 0 -9
-9 -6 -19 7 -27 -12 -111 -25 -111 -6 0 -8 10 -4 24 3 14 2 27 -3 30 -5 4 -12
-13 -16 -36 -4 -24 -12 -51 -17 -61 -14 -28 0 -34 18 -9 8 12 19 20 23 18 4
-3 14 6 21 19 7 14 21 25 31 25 10 0 25 10 33 22 9 12 18 19 21 16 12 -12 -24
-77 -52 -94 -15 -10 -42 -30 -58 -44 -52 -44 -180 -103 -208 -96 -24 6 -24 7
-11 43 14 41 17 82 8 107 -12 32 -23 15 -18 -26 6 -44 -8 -98 -25 -98 -6 0
-23 27 -39 60 -16 33 -25 60 -20 60 4 0 8 5 8 10 0 6 -5 10 -11 10 -20 0 -38
33 -39 69 0 18 -6 59 -14 90 -8 31 -18 87 -22 126 -12 118 -34 149 -102 145
-60 -4 -65 -2 -57 28 3 15 9 38 12 51 4 16 2 22 -5 17 -6 -3 -13 -20 -17 -36
-8 -37 -21 -38 -56 -4 -18 17 -42 28 -71 31 -38 4 -47 1 -86 -32 -38 -33 -47
-37 -84 -32 -34 5 -44 1 -65 -19 -18 -18 -30 -23 -46 -17 -12 4 -25 6 -29 5
-4 -1 -23 32 -42 73 -21 46 -49 87 -72 107 -21 18 -50 45 -65 60 -33 31 -117
64 -188 74 -48 6 -52 5 -83 -28 -18 -19 -41 -47 -52 -63 -18 -26 -64 -51 -226
-120 l-64 -28 -121 13 c-66 7 -149 17 -185 22 -135 19 -198 20 -230 5 -29 -15
-31 -14 -55 15 -15 17 -25 24 -25 15 0 -8 7 -20 15 -27 21 -17 19 -29 -10 -52
-14 -11 -25 -27 -25 -36 0 -12 9 -7 33 15 40 39 111 72 155 73 18 0 51 -9 73
-20 22 -12 49 -18 59 -15 11 3 50 -2 87 -11 96 -25 256 -25 303 -1 19 11 52
25 72 32 31 12 38 12 49 -1 6 -8 16 -14 21 -14 6 0 5 7 -2 15 -7 9 -11 17 -9
18 2 2 25 16 52 31 30 17 54 40 66 64 10 20 30 47 43 59 20 19 29 20 75 13 28
-5 66 -16 83 -25 53 -27 160 -139 199 -207 27 -46 43 -64 61 -66 14 -2 29 -8
34 -13 17 -16 42 -10 68 16 16 16 32 23 42 19 20 -8 60 2 78 19 24 23 67 47
84 47 9 0 34 -20 55 -44 46 -52 86 -70 139 -63 47 6 63 -12 74 -83 4 -25 11
-67 16 -95 6 -27 14 -79 20 -114 13 -80 76 -224 114 -262 23 -23 39 -29 72
-29 42 0 134 34 134 49 0 5 42 36 93 69 93 59 137 97 182 156 13 18 59 59 101
92 125 96 141 112 216 213 39 53 110 137 158 186 56 59 98 115 123 162 21 40
60 105 88 145 27 39 49 76 49 81 0 5 16 25 35 44 20 20 34 42 31 50 -3 8 2 25
10 39 9 13 14 27 12 30 -3 2 -14 -8 -24 -23z"/>
<path d="M7788 4220 c-14 -37 -41 -181 -73 -385 -18 -121 -47 -274 -64 -340
-34 -138 -54 -249 -71 -390 -7 -55 -23 -145 -37 -200 -34 -135 -52 -228 -46
-239 8 -12 23 16 23 44 0 14 15 86 34 160 18 74 39 180 46 235 16 133 46 299
75 415 32 129 33 133 50 256 26 197 44 304 60 359 15 50 17 123 3 85z"/>
<path d="M7866 4083 c-14 -76 -30 -174 -36 -218 -5 -44 -16 -109 -24 -145 -8
-36 -19 -92 -24 -125 -5 -33 -31 -154 -57 -270 -25 -115 -55 -259 -65 -320
-24 -140 -45 -246 -75 -365 -13 -52 -28 -131 -34 -175 -17 -118 -41 -252 -57
-319 -8 -32 -13 -61 -10 -63 12 -12 25 12 35 60 20 106 51 284 56 332 4 28 19
104 35 170 15 66 40 188 54 270 39 221 44 246 77 405 17 80 37 165 45 190 8
25 17 74 20 110 3 36 12 83 19 105 7 23 17 74 20 115 4 41 20 140 36 220 15
80 24 149 20 153 -5 5 -20 -54 -35 -130z"/>
<path d="M8086 4123 c-11 -58 -26 -154 -51 -328 -24 -174 -61 -390 -90 -525
-14 -65 -34 -192 -55 -345 -13 -96 -59 -356 -65 -365 -6 -9 -62 -270 -70 -322
-5 -38 -3 -48 8 -48 10 0 16 18 20 63 4 34 24 141 46 237 38 167 56 267 101
570 12 74 27 169 35 210 41 218 58 317 90 545 20 138 40 263 45 279 12 36 13
56 1 56 -5 0 -12 -12 -15 -27z"/>
<path d="M7671 4053 c-7 -43 -19 -103 -26 -133 -7 -30 -16 -80 -20 -110 -4
-30 -33 -163 -65 -295 -33 -132 -71 -296 -85 -365 -26 -127 -64 -302 -91 -420
-8 -36 -23 -92 -33 -125 -10 -33 -26 -96 -36 -140 -9 -44 -27 -116 -41 -161
-41 -137 -66 -244 -60 -260 9 -23 26 -6 25 24 -2 28 15 101 56 237 13 44 31
116 41 160 9 44 25 109 35 145 20 71 30 114 84 360 58 269 64 293 70 335 4 22
15 67 25 100 24 82 87 368 95 435 3 30 15 89 25 130 20 81 28 145 19 155 -4 3
-12 -29 -18 -72z"/>
<path d="M8270 4083 c0 -5 -16 -91 -34 -193 -19 -102 -40 -245 -46 -318 -6
-73 -15 -154 -20 -180 -4 -26 -14 -85 -20 -132 -6 -46 -18 -100 -26 -119 -8
-19 -28 -100 -45 -180 -41 -199 -43 -211 -32 -211 10 0 23 54 54 225 11 61 29
136 39 167 11 31 24 94 29 140 5 46 14 103 20 128 5 25 13 97 16 160 6 94 61
436 81 503 3 9 1 17 -5 17 -6 0 -11 -3 -11 -7z"/>
<path d="M8417 3971 c-3 -15 -9 -75 -12 -132 -4 -57 -18 -176 -31 -264 -14
-88 -34 -225 -44 -305 -35 -266 -50 -352 -76 -442 -3 -10 -1 -18 3 -18 18 0
67 266 93 495 7 55 23 170 36 255 13 85 24 180 25 210 0 30 6 92 13 138 6 46
9 85 5 87 -3 3 -9 -8 -12 -24z"/>
<path d="M8486 3920 c-3 -14 -17 -118 -31 -232 -14 -114 -36 -263 -49 -330
-13 -68 -27 -159 -31 -203 -4 -44 -17 -154 -30 -245 -13 -91 -33 -232 -45
-314 -11 -81 -22 -151 -25 -155 -2 -4 -22 -116 -44 -248 -23 -132 -43 -247
-46 -254 -2 -8 -9 -50 -14 -94 -6 -44 -19 -130 -30 -190 -11 -61 -29 -187 -41
-280 -12 -94 -25 -188 -30 -210 -5 -22 -9 -49 -9 -60 1 -72 34 107 79 430 11
83 27 182 35 220 7 39 18 102 24 140 6 39 18 108 26 155 36 193 77 442 90 545
8 61 19 137 25 170 5 33 17 112 25 175 9 63 18 126 20 140 2 14 6 59 10 100 3
41 15 120 26 174 21 105 34 195 49 341 5 50 15 120 21 156 11 65 8 120 -5 69z"/>
<path d="M8561 3738 c-7 -57 -18 -155 -27 -218 -8 -63 -18 -158 -23 -210 -8
-83 -44 -287 -71 -405 -5 -22 -14 -85 -20 -140 -7 -55 -20 -140 -30 -190 -16
-78 -25 -155 -21 -190 1 -5 6 -3 11 5 5 8 10 40 10 71 0 31 7 78 15 105 8 27
20 99 26 159 6 61 17 139 24 175 8 36 19 92 25 125 7 33 18 89 25 125 8 36 16
97 20 135 15 164 47 443 56 480 11 51 11 75 0 75 -5 0 -14 -46 -20 -102z"/>
<path d="M7366 3630 c-9 -30 -30 -113 -47 -185 -70 -301 -80 -345 -103 -440
-13 -55 -27 -120 -31 -145 -3 -25 -13 -70 -20 -100 -8 -30 -16 -82 -19 -114
-7 -83 13 -58 23 30 14 109 48 277 86 429 20 77 46 194 60 260 13 66 36 160
50 209 14 49 24 94 22 100 -2 6 -12 -14 -21 -44z"/>
<path d="M7886 3624 c-3 -9 -6 -28 -6 -44 0 -16 -11 -79 -24 -142 -13 -62 -27
-135 -31 -163 -3 -27 -21 -126 -40 -220 -18 -93 -36 -195 -40 -225 -8 -69 -56
-310 -100 -500 -38 -167 -44 -212 -30 -217 6 -2 17 27 24 64 7 38 16 86 21
108 4 22 24 121 44 220 20 99 46 241 57 315 11 74 33 196 49 270 15 74 31 162
35 195 3 33 13 89 22 125 24 100 41 220 33 225 -4 3 -11 -2 -14 -11z"/>
<path d="M4861 3599 c-99 -9 -142 -19 -204 -51 -42 -21 -58 -18 -37 7 7 9 10
18 7 21 -6 6 -78 -89 -130 -171 -39 -61 -65 -68 -100 -26 -24 29 -57 42 -57
22 0 -11 49 -62 73 -76 16 -9 15 -16 -9 -93 -27 -82 -27 -83 -79 -107 -28 -14
-56 -25 -61 -25 -29 0 -59 120 -34 135 11 7 13 116 4 153 -10 37 -44 24 -74
-28 -16 -27 -35 -46 -47 -48 -19 -3 -22 3 -28 45 -12 85 -24 113 -50 113 -35
0 -82 -45 -111 -107 -24 -51 -47 -73 -60 -60 -4 3 4 16 15 29 14 15 18 24 10
27 -7 2 -19 -6 -29 -18 -15 -20 -18 -21 -29 -7 -17 20 -42 20 -88 1 -33 -14
-38 -14 -55 2 -20 18 -20 29 -3 108 12 56 13 56 50 19 45 -44 56 -40 15 6 -17
19 -30 38 -30 42 0 5 -7 5 -16 0 -21 -12 -54 -106 -54 -154 0 -33 4 -40 28
-49 19 -7 38 -7 63 0 50 15 57 14 65 -11 19 -56 7 -76 -20 -36 -11 15 -16 18
-16 7 0 -8 7 -25 16 -38 16 -22 15 -24 -27 -67 -48 -49 -59 -52 -121 -25 -24
10 -65 21 -92 25 -32 5 -63 18 -88 39 -35 28 -42 30 -69 20 -45 -17 -76 0 -90
51 -9 33 -13 37 -20 23 -24 -42 54 -116 102 -98 19 7 30 3 56 -20 18 -15 49
-31 70 -34 21 -3 66 -14 100 -25 99 -32 123 -28 176 29 26 27 49 61 53 76 4
17 20 33 45 46 41 20 89 85 89 118 0 21 47 64 60 56 4 -3 11 -31 15 -62 8 -67
20 -93 40 -93 8 0 15 -3 15 -7 0 -16 -39 -132 -84 -250 -47 -124 -52 -143 -38
-143 4 0 19 35 33 78 77 229 109 304 143 343 20 21 36 46 36 54 0 8 4 15 9 15
11 0 19 -108 9 -123 -4 -7 -8 -35 -8 -63 0 -92 59 -145 110 -99 9 8 24 15 32
15 28 0 61 45 84 116 13 38 23 75 24 82 0 7 14 25 31 40 18 14 38 42 46 62 19
45 51 80 75 80 10 0 18 4 18 8 0 4 18 13 40 19 45 11 51 4 18 -21 -13 -9 -16
-15 -8 -12 8 3 39 12 68 21 44 14 52 20 50 38 -3 18 4 22 47 30 28 5 111 7
185 5 l135 -3 60 -40 60 -39 147 -6 c129 -5 150 -8 170 -26 36 -33 84 -47 126
-39 20 4 75 10 122 15 47 5 122 15 168 24 l83 16 37 -25 c20 -14 42 -25 49
-25 6 0 22 -14 35 -30 61 -79 71 -90 82 -90 16 0 14 56 -4 96 -13 29 -26 38
-128 89 -60 31 -103 30 -236 -5 -40 -11 -113 -20 -167 -21 -82 -2 -101 1 -130
18 -43 26 -141 43 -252 43 -77 0 -88 2 -116 26 -61 51 -173 63 -400 43z"/>
<path d="M3285 3540 c-3 -5 -22 -10 -41 -10 -19 0 -34 -4 -34 -10 0 -5 9 -10
21 -10 21 0 21 0 -2 -20 -29 -24 -22 -25 20 -4 17 8 29 19 26 24 -3 4 2 11 11
14 13 5 14 2 9 -11 -4 -10 -15 -44 -24 -75 -11 -39 -29 -70 -55 -97 -24 -24
-34 -41 -27 -46 12 -7 5 -25 -10 -25 -18 0 -9 64 13 87 12 13 19 26 15 29 -4
4 -15 -4 -26 -17 -18 -23 -20 -23 -38 -6 -27 24 -38 21 -21 -5 8 -13 20 -42
26 -65 7 -23 17 -45 23 -49 11 -6 68 53 69 71 0 6 15 32 34 58 19 27 32 55 30
62 -3 8 2 30 11 49 10 20 15 43 11 51 -6 17 -32 20 -41 5z"/>
<path d="M5161 3413 c-11 -43 -25 -98 -30 -123 -6 -25 -31 -106 -56 -180 -52
-154 -118 -411 -113 -437 7 -31 30 25 33 76 3 50 20 113 95 351 27 85 61 200
75 255 15 55 29 108 32 118 3 9 1 17 -5 17 -5 0 -19 -35 -31 -77z"/>
<path d="M7240 3488 c0 -3 -18 -78 -39 -165 -22 -87 -49 -212 -61 -278 -26
-151 -86 -411 -112 -484 -10 -31 -25 -105 -34 -166 -8 -60 -19 -128 -24 -150
-14 -60 -13 -158 3 -152 8 3 11 20 9 48 -1 24 4 85 13 134 8 50 19 125 26 169
6 43 17 97 26 120 20 56 79 315 103 456 22 126 75 352 97 414 9 27 10 43 3 50
-5 5 -10 7 -10 4z"/>
<path d="M5238 3403 c-9 -38 -41 -156 -71 -263 -49 -173 -105 -383 -122 -462
-4 -21 -2 -28 10 -28 10 0 15 10 15 30 0 16 12 74 26 127 14 54 33 127 41 163
8 36 35 133 60 215 67 222 82 285 65 285 -5 0 -16 -30 -24 -67z"/>
<path d="M5340 3383 c-13 -38 -47 -133 -77 -213 -77 -205 -109 -310 -127 -425
-9 -55 -19 -110 -22 -122 -6 -21 9 -33 19 -15 3 4 12 61 22 126 16 116 62 274
120 416 31 77 105 282 105 293 0 4 -4 7 -9 7 -5 0 -19 -30 -31 -67z"/>
<path d="M5448 3420 c-14 -41 -96 -334 -134 -480 -23 -91 -54 -198 -68 -239
-27 -78 -31 -101 -18 -101 10 0 63 173 117 385 24 94 51 190 60 215 25 71 56
201 52 219 -3 14 -5 14 -9 1z"/>
<path d="M5500 3389 c0 -30 -49 -237 -65 -276 -21 -50 -93 -323 -105 -397 -5
-35 -17 -83 -25 -106 -15 -43 -12 -67 6 -40 12 20 27 73 43 162 19 103 72 307
95 365 22 58 71 254 71 289 0 13 -4 24 -10 24 -5 0 -10 -9 -10 -21z"/>
<path d="M8820 3400 c0 -8 -7 -60 -15 -115 -8 -55 -19 -131 -25 -170 -5 -38
-14 -99 -20 -135 -6 -36 -14 -99 -19 -140 -12 -101 -87 -577 -106 -668 -17
-81 -19 -122 -7 -122 8 0 25 98 71 390 36 228 60 393 81 555 12 88 30 214 40
280 12 77 16 123 10 129 -7 7 -10 5 -10 -4z"/>
<path d="M7105 3363 c-3 -16 -21 -91 -40 -168 -19 -77 -46 -203 -60 -280 -13
-77 -41 -201 -60 -275 -33 -124 -95 -390 -109 -467 -4 -25 -2 -33 9 -33 9 0
16 16 20 48 10 81 36 199 91 421 30 118 66 284 80 369 14 84 36 188 50 231 24
76 42 181 31 181 -4 0 -9 -12 -12 -27z"/>
<path d="M5970 3338 c-15 -58 -81 -296 -125 -448 -46 -159 -115 -410 -115
-416 0 -2 4 -4 9 -4 5 0 21 51 36 113 16 61 39 144 52 182 13 39 44 147 68
240 24 94 53 196 64 227 21 61 37 148 28 148 -4 0 -11 -19 -17 -42z"/>
<path d="M7007 3273 c-3 -5 -19 -64 -36 -133 -17 -68 -49 -190 -71 -270 -22
-80 -56 -201 -75 -270 -19 -69 -43 -179 -54 -245 -11 -66 -23 -128 -26 -138
-7 -17 9 -25 19 -9 5 9 20 94 32 187 3 28 17 91 30 140 74 274 98 364 134 506
22 85 46 171 55 191 8 21 11 39 6 43 -5 3 -12 2 -14 -2z"/>
<path d="M8026 3253 c-3 -10 -17 -81 -31 -158 -14 -77 -33 -167 -41 -199 -36
-143 -51 -224 -74 -411 -6 -44 -21 -129 -34 -190 -14 -62 -20 -114 -15 -119 5
-6 10 -4 13 5 11 40 49 250 51 290 2 26 6 55 9 65 3 11 12 65 20 120 8 56 26
151 40 210 40 174 83 404 75 404 -4 0 -10 -8 -13 -17z"/>
<path d="M6876 3179 c-49 -211 -77 -335 -86 -384 -12 -61 -111 -376 -156 -495
-13 -35 -20 -68 -16 -72 15 -15 28 14 51 107 12 50 43 149 68 220 25 72 56
182 69 245 12 63 38 176 57 250 19 74 31 139 27 144 -5 5 -11 -2 -14 -15z"/>
<path d="M8181 3160 c-14 -132 -33 -270 -46 -330 -40 -188 -65 -332 -65 -381
-1 -44 -23 -129 -37 -137 -10 -7 -15 -33 -38 -227 -8 -66 -18 -133 -23 -150
-9 -29 -48 -226 -113 -565 -17 -91 -38 -182 -45 -203 -20 -58 -38 -207 -26
-219 7 -7 12 12 17 58 4 38 22 134 41 214 20 80 42 189 50 242 8 54 24 142 35
195 12 54 27 130 34 170 7 40 18 87 23 105 13 43 20 83 31 196 6 52 15 100 22
109 7 8 13 24 14 36 1 12 9 56 18 97 8 41 23 134 32 205 9 72 25 164 36 206
22 90 52 326 46 366 -2 15 -5 21 -6 13z"/>
<path d="M6756 3071 c-3 -5 -31 -110 -62 -232 -31 -123 -85 -315 -120 -426
-63 -198 -73 -243 -55 -243 12 0 21 25 21 59 0 15 24 101 54 192 30 90 66 214
80 274 15 61 40 160 56 220 16 61 32 122 36 138 6 26 1 36 -10 18z"/>
<path d="M7263 2785 c-6 -27 -17 -79 -24 -115 -21 -114 -68 -333 -84 -390 -9
-30 -22 -89 -30 -130 -8 -41 -17 -87 -21 -102 -3 -16 -2 -28 3 -28 12 0 30 52
38 110 9 68 25 140 41 185 7 22 21 81 29 130 9 50 28 149 42 222 24 126 29
222 6 118z"/>
<path d="M8180 2708 c-1 -103 -30 -306 -65 -453 -7 -33 -17 -103 -20 -155 -6
-89 -41 -298 -85 -505 -20 -96 -65 -413 -75 -530 -4 -38 -13 -98 -21 -133 -16
-73 -18 -102 -5 -102 10 0 19 61 77 505 14 105 31 217 39 250 29 124 74 384
85 490 7 61 25 175 40 255 27 136 51 390 36 390 -3 0 -6 -6 -6 -12z"/>
<path d="M7710 2132 c0 -29 -63 -387 -76 -432 -17 -59 -26 -111 -49 -290 -24
-194 -32 -281 -24 -286 14 -8 17 9 34 176 15 158 50 394 60 410 4 6 75 410 75
425 0 3 -4 5 -10 5 -5 0 -10 -4 -10 -8z"/>
</g>
</svg>
